<svg xmlns="http://www.w3.org/2000/svg" xmlns:svg="http://www.w3.org/2000/svg" id="svg2" width="739.51" height="820" version="1.0"><metadata id="metadata4562"/><defs id="defs4"><marker id="Arrow2Lend" orient="auto" refX="0" refY="0" style="overflow:visible"><path id="path4726" d="M 8.7185878,4.0337352 L -2.2072895,0.016013256 L 8.7185884,-4.0017078 C 6.97309,-1.6296469 6.9831476,1.6157441 8.7185878,4.0337352 z" transform="matrix(-1.1,0,0,-1.1,-1.1,0)" style="font-size:12px;fill-rule:evenodd;stroke-width:.625;stroke-linejoin:round"/></marker><marker id="Arrow1Mend" orient="auto" refX="0" refY="0" style="overflow:visible"><path id="path4738" d="M 0,0 L 5,-5 L -12.5,0 L 5,5 L 0,0 z" transform="matrix(-0.4,0,0,-0.4,-4,0)" style="fill-rule:evenodd;stroke:#000;stroke-width:1pt;marker-start:none"/></marker><marker id="Arrow2Mend" orient="auto" refX="0" refY="0" style="overflow:visible"><path id="path4720" d="M 8.7185878,4.0337352 L -2.2072895,0.016013256 L 8.7185884,-4.0017078 C 6.97309,-1.6296469 6.9831476,1.6157441 8.7185878,4.0337352 z" transform="scale(-0.6,-0.6)" style="font-size:12px;fill-rule:evenodd;stroke-width:.625;stroke-linejoin:round"/></marker><marker id="TriangleOutL" orient="auto" refX="0" refY="0" style="overflow:visible"><path id="path4649" d="M 5.77,0 L -2.88,5 L -2.88,-5 L 5.77,0 z" transform="scale(0.8,0.8)" style="fill-rule:evenodd;stroke:#000;stroke-width:1pt;marker-start:none"/></marker><linearGradient id="linearGradient3133"><stop id="stop3135" offset="0" style="stop-color:#00f;stop-opacity:1"/><stop id="stop3137" offset="1" style="stop-color:#00f;stop-opacity:0"/></linearGradient></defs><g id="layer1" transform="translate(-12.939504,-98.096169)"><g id="g2640" transform="translate(0,18)"><g id="g5175"><path id="path3581" d="M 613.625,724.53125 C 612.5981,724.53125 611.76562,725.36372 611.76562,726.39062 C 611.76562,727.41753 612.5981,728.25 613.625,728.25 C 622.90001,728.23499 630.70258,730.13353 636.03125,733.65625 C 641.35992,737.17897 644.3526,742.14212 644.34375,749.0625 C 644.32605,762.90325 631.26999,784.90482 596.375,813.5 C 595.79567,813.89505 595.48945,814.58364 595.58412,815.27842 C 595.6788,815.9732 596.15811,816.55476 596.82201,816.78039 C 597.48592,817.00603 598.22033,816.83696 598.71875,816.34375 C 633.97316,787.45405 648.0107,765.16483 648.03125,749.09375 C 648.04152,741.05821 644.28029,734.65235 638.09375,730.5625 C 631.90721,726.47265 623.40389,724.51543 613.625,724.53125 z" style="fill:#000;fill-opacity:1;fill-rule:evenodd;stroke:none;stroke-width:3.70000005;stroke-linecap:round;stroke-linejoin:miter;stroke-miterlimit:3.70000005;stroke-dasharray:none;stroke-opacity:1"/><path id="path5181" d="M 596.55809,726.41912 L 622.13811,711.57772 L 622.18601,741.17768 L 596.55809,726.41912 z" style="fill-rule:evenodd;stroke:#000;stroke-width:.8pt;marker-start:none"/></g><g id="g5167"><path id="path3583" d="M 615.53125,537.40625 C 614.84881,537.41915 614.22891,537.80672 613.91846,538.4146 C 613.60802,539.02248 613.65747,539.7519 614.04712,540.31231 C 614.43677,540.87272 615.10332,541.17308 615.78125,541.09375 C 624.30518,540.5271 641.5447,547.01808 658.4375,560.09375 C 675.3303,573.16942 692.0983,592.67701 700.9375,617.71875 C 709.7767,642.76049 710.77667,673.3453 696.03125,708.90625 C 681.28583,744.4672 650.73563,785.00468 596.375,829.59375 C 595.58109,830.24096 595.46217,831.40922 596.10937,832.20313 C 596.75658,832.99703 597.92484,833.11596 598.71875,832.46875 C 653.4037,787.61366 684.38073,746.62431 699.4375,710.3125 C 714.49427,674.00069 713.56383,642.35519 704.4375,616.5 C 695.31117,590.64481 678.08354,570.59726 660.71875,557.15625 C 643.35396,543.71524 626.08129,536.7049 615.53125,537.40625 z" style="fill:#000;fill-opacity:1;fill-rule:evenodd;stroke:none;stroke-width:3.70000005;stroke-linecap:round;stroke-linejoin:miter;stroke-miterlimit:3.70000005;stroke-dasharray:none;stroke-opacity:1"/><path id="path5173" d="M 598.60784,540.39306 L 623.17375,523.9273 L 625.13716,553.46211 L 598.60784,540.39306 z" style="fill-rule:evenodd;stroke:#000;stroke-width:.8pt;marker-start:none"/></g><g id="g5159"><path id="path3585" d="M 615.5,404.59375 C 614.4731,404.61964 613.66161,405.4731 613.6875,406.5 C 613.71339,407.5269 614.56685,408.33839 615.59375,408.3125 C 631.60747,408.78571 657.29883,423.17914 681.5625,448.0625 C 705.82617,472.94586 728.83428,508.15304 740.59375,549.8125 C 764.11269,633.13141 743.02185,742.29203 596.4375,847.625 C 595.85893,847.99334 595.53159,848.65152 595.58697,849.33515 C 595.64236,850.01878 596.07138,850.61568 596.7017,850.88608 C 597.33203,851.15647 598.06021,851.05599 598.59375,850.625 C 746.02889,744.68067 768.06415,633.50935 744.15625,548.8125 C 732.2023,506.46408 708.88382,470.76376 684.21875,445.46875 C 659.55368,420.17374 633.72034,405.12662 615.6875,404.59375 C 615.62504,404.59058 615.56246,404.59058 615.5,404.59375 L 615.5,404.59375 z" style="fill:#000;fill-opacity:1;fill-rule:evenodd;stroke:none;stroke-width:3.70000005;stroke-linecap:round;stroke-linejoin:miter;stroke-miterlimit:3.70000005;stroke-opacity:1"/><path id="path5165" d="M 598.56551,405.95282 L 624.59549,391.91555 L 623.72119,421.50263 L 598.56551,405.95282 z" style="fill-rule:evenodd;stroke:#000;stroke-width:.8pt;marker-start:none"/></g></g><g id="g2592" transform="translate(0,18)"><rect id="rect2160" width="434.628" height="100.608" x="162.032" y="98.596" style="font-size:36px;fill:#fff;fill-opacity:1;fill-rule:evenodd;stroke:#000;stroke-width:1px;stroke-linecap:butt;stroke-linejoin:miter;stroke-opacity:1"/><rect id="rect3149" width="434.628" height="100.608" x="162.032" y="203.991" style="font-size:36px;fill:#fff;fill-opacity:1;fill-rule:evenodd;stroke:#000;stroke-width:1px;stroke-linecap:butt;stroke-linejoin:miter;stroke-opacity:1"/><rect id="rect3151" width="434.628" height="100.608" x="162.032" y="777.151" style="font-size:36px;fill:#fff;fill-opacity:1;fill-rule:evenodd;stroke:#000;stroke-width:1px;stroke-linecap:butt;stroke-linejoin:miter;stroke-opacity:1"/><rect id="rect3153" width="434.368" height="159.708" x="162.161" y="309.517" style="font-size:36px;fill:#fff;fill-opacity:1;fill-rule:evenodd;stroke:#000;stroke-width:1.25955236px;stroke-linecap:butt;stroke-linejoin:miter;stroke-opacity:1"/><rect id="rect3155" width="434.51" height="125.643" x="162.09" y="474.2" style="font-size:36px;fill:#fff;fill-opacity:1;fill-rule:evenodd;stroke:#000;stroke-width:1.11736131px;stroke-linecap:butt;stroke-linejoin:miter;stroke-opacity:1"/><rect id="rect3157" width="434.574" height="111.622" x="162.058" y="660.715" style="font-size:36px;fill:#fff;fill-opacity:1;fill-rule:evenodd;stroke:#000;stroke-width:1.0532496px;stroke-linecap:butt;stroke-linejoin:miter;stroke-opacity:1"/><text id="text5129" x="378.458" y="638.715" xml:space="preserve" style="font-size:36px;font-style:normal;font-variant:normal;font-weight:400;font-stretch:normal;text-align:center;line-height:125%;writing-mode:lr-tb;text-anchor:middle;font-family:Bitstream Vera Sans"><tspan id="tspan5131" x="378.458" y="638.715">...</tspan></text><text id="text5133" x="376.104" y="727.509" xml:space="preserve" style="font-size:36px;font-style:normal;font-variant:normal;font-weight:400;font-stretch:normal;text-align:center;line-height:125%;writing-mode:lr-tb;text-anchor:middle;font-family:Bitstream Vera Sans"><tspan id="tspan5135" x="376.104" y="727.509">.data</tspan></text><text id="text5137" x="376.104" y="548.004" xml:space="preserve" style="font-size:36px;font-style:normal;font-variant:normal;font-weight:400;font-stretch:normal;text-align:center;line-height:125%;writing-mode:lr-tb;text-anchor:middle;font-family:Bitstream Vera Sans"><tspan id="tspan5139" x="376.104" y="548.004">.rodata</tspan></text><text id="text5141" x="374.767" y="402.67" xml:space="preserve" style="font-size:36px;font-style:normal;font-variant:normal;font-weight:400;font-stretch:normal;text-align:center;line-height:125%;writing-mode:lr-tb;text-anchor:middle;font-family:Bitstream Vera Sans"><tspan id="tspan5143" x="374.767" y="402.67">.text</tspan></text><text id="text5145" x="390.973" y="259.242" xml:space="preserve" style="font-size:36px;font-style:normal;font-variant:normal;font-weight:400;font-stretch:normal;text-align:center;line-height:125%;writing-mode:lr-tb;text-anchor:middle;font-family:Bitstream Vera Sans"><tspan id="tspan5147" x="390.973" y="259.242">Program header table</tspan></text><text id="text5149" x="374.474" y="159.883" xml:space="preserve" style="font-size:36px;font-style:normal;font-variant:normal;font-weight:400;font-stretch:normal;text-align:center;line-height:125%;writing-mode:lr-tb;text-anchor:middle;font-family:Bitstream Vera Sans"><tspan id="tspan5151" x="374.474" y="159.883">ELF header</tspan></text><text id="text5153" x="376.163" y="842.335" xml:space="preserve" style="font-size:36px;font-style:normal;font-variant:normal;font-weight:400;font-stretch:normal;text-align:center;line-height:125%;writing-mode:lr-tb;text-anchor:middle;font-family:Bitstream Vera Sans"><tspan id="tspan5155" x="376.163" y="842.335">Section header table</tspan></text></g><g id="g2628" transform="translate(0,9.9513409)" style="font-size:40px"><g id="g5191"><path id="path4760" d="M 158.59375,240.46875 C 158.17657,240.49346 157.78005,240.65868 157.46875,240.9375 C 12.232118,366.00238 -1.236628,475.64394 22.09375,553.75 C 45.424128,631.85606 105.21875,678.4375 105.21875,678.4375 C 106.02992,679.06745 107.19818,678.92054 107.82813,678.10938 C 108.45807,677.29821 108.31117,676.12995 107.5,675.5 C 107.5,675.5 48.605655,629.51813 25.65625,552.6875 C 2.7068448,475.85687 15.391155,368.19356 159.90625,243.75 C 160.53574,243.2394 160.7596,242.37851 160.45857,241.62595 C 160.15754,240.87338 159.40173,240.40437 158.59375,240.46875 L 158.59375,240.46875 z" style="font-size:40px;fill:#000;fill-opacity:1;fill-rule:evenodd;stroke:none;stroke-width:3.70000005;stroke-linecap:round;stroke-linejoin:miter;stroke-miterlimit:3.70000005;stroke-dasharray:none;stroke-opacity:1"/><path id="path5197" d="M 119.83906,687.47222 L 90.54692,683.40096 L 108.74694,660.05745 L 119.83906,687.47222 z" style="fill-rule:evenodd;stroke:#000;stroke-width:.8pt;marker-start:none"/></g><g id="g5183"><path id="path4764" d="M 160.1875,264.53125 C 159.83976,264.58497 159.51454,264.73674 159.25,264.96875 C 73.516681,335.57267 56.303827,382.38545 61.25,412.0625 C 66.196173,441.73955 93.28125,453.21875 93.28125,453.21875 C 93.895652,453.50878 94.619589,453.43873 95.166989,453.03629 C 95.714388,452.63384 95.997179,451.96375 95.903612,451.29081 C 95.810045,450.61787 95.355176,450.05034 94.71875,449.8125 C 94.71875,449.8125 69.517857,439.1384 64.90625,411.46875 C 60.294643,383.7991 76.293073,338.06012 161.59375,267.8125 C 162.24704,267.29362 162.47225,266.40171 162.14361,265.63488 C 161.81497,264.86806 161.01379,264.41603 160.1875,264.53125 z" style="font-size:40px;fill:#000;fill-opacity:1;fill-rule:evenodd;stroke:none;stroke-width:3.70000005;stroke-linecap:round;stroke-linejoin:miter;stroke-miterlimit:3.70000005;stroke-dasharray:none;stroke-opacity:1"/><path id="path5189" d="M 109.73853,458.16544 L 80.39141,461.81941 L 91.924754,434.55878 L 109.73853,458.16544 z" style="fill-rule:evenodd;stroke:#000;stroke-width:.8pt;marker-start:none"/></g></g></g><text style="font-style:normal;font-weight:400;font-size:40px;line-height:1;font-family:sans-serif;text-align:end;letter-spacing:0;word-spacing:0;text-anchor:end;fill:#000;fill-opacity:1;stroke:none" id="text9601" x="143.91" y="292" xml:space="preserve"><tspan id="tspan9633" x="143.91" y="292" style="font-size:46.66666667px;line-height:100%">⎧</tspan><tspan id="tspan9677" x="143.91" y="340" style="font-size:46.66666667px;line-height:100%">⎪</tspan><tspan id="tspan9679" x="143.91" y="388" style="font-size:46.66666667px;line-height:100%">⎨</tspan><tspan id="tspan9681" x="143.91" y="436" style="font-size:46.66666667px;line-height:100%">⎪</tspan><tspan id="tspan9683" x="143.91" y="484" style="font-size:46.66666667px;line-height:100%">⎩</tspan></text><text style="font-style:normal;font-weight:400;font-size:40px;line-height:1;font-family:sans-serif;text-align:end;letter-spacing:0;word-spacing:0;text-anchor:end;fill:#000;fill-opacity:1;stroke:none" id="text9601-2" x="144.75" y="559.879" xml:space="preserve"><tspan id="tspan9677-4" x="144.75" y="559.879" style="font-size:46.66666794px;line-height:100%">⎧</tspan><tspan id="tspan9681-9" x="144.75" y="606.546" style="font-size:46.66666794px;line-height:100%">⎨</tspan><tspan id="tspan9683-5" x="144.75" y="653.212" style="font-size:46.66666794px;line-height:100%">⎩</tspan></text></svg>