<svg xmlns="http://www.w3.org/2000/svg" xmlns:xlink="http://www.w3.org/1999/xlink" width="924" height="780" version="1.1" viewBox="-71 -68 308 260"><style type="text/css">text.f1{font-style:italic}text.f1,text.f3,text.f5{fill:#000;font-family:times;font-size:8}text.f5{font-family:courier;font-size:9}text.f7{font-style:italic}text.f7,text.f9{fill:#000;font-family:times;font-size:9}</style><text x="29.029" y="-6.749" class="f7" transform="matrix(1 0 0 1 -35.4335 2.2506)">script</text><text x="30.417" y="-6.749" class="f7" transform="matrix(1 0 0 1 134.647 3.14276)">bash</text><text x="16.114" y="-6.749" class="f9" transform="matrix(1 0 0 1 -56.6936 116.53)">Terminal</text><text x="16.789" y="-6.749" class="f9" transform="matrix(1 0 0 1 21.2601 111.05)">Pseudo ter-<tspan x="14.305" y="4.21">minal master</tspan></text><text x="23.875" y="-6.749" class="f9" transform="matrix(1 0 0 1 127.561 104.932)">Pseudo ter-<tspan x="24.83" y="4.21">minal slave</tspan></text><text x="9.638" y="15.168" class="f5" transform="matrix(1 0 0 1 127.561 104.932)">(/dev/pts/...)</text><text x="23.659" y="-6.749" class="f9" transform="matrix(1 0 0 1 -42.5202 187.356)">User</text><text x="4.777" y="-6" class="f9" transform="matrix(1 0 0 1 28.3468 -54.3399)">Write to ﬁle (transcript)</text><text x="4.777" y="-6.749" class="f1" transform="matrix(1 0 0 1 76.9438 8.84837)">fork()</text><text x="4.777" y="-6.749" class="f1" transform="matrix(1 0 0 1 180.089 60.6888)">Kernel space</text><text x="4.777" y="-6.749" class="f7" transform="matrix(1 0 0 1 -71.4648 -33.0103)">User space</text><text x="4.777" y="-6.749" class="f3" transform="matrix(1 0 0 1 -42.5775 29.6523)">stdin</text><text x="4.777" y="-6.749" class="f1" transform="matrix(1 0 0 1 -4.43945 41.6759)">read()</text><text x="4.777" y="-6.749" class="f3" transform="matrix(1 0 0 1 -25.4025 84.6386)">stdout<tspan x="4.777" y="1.221">stderr</tspan></text><text x="4.777" y="-6.749" class="f1" transform="matrix(1 0 0 1 40.0553 75.3728)">write()</text><text x="4.777" y="-6.749" class="f3" transform="matrix(1 0 0 1 124.464 40.4786)">stdin()</text><text x="4.777" y="-6.749" class="f3" transform="matrix(1 0 0 1 160.497 81.2463)">stdout<tspan x="4.777" y="1.221">stderr</tspan></text><text x="4.777" y="-6.749" class="f3" transform="matrix(1 0 0 1 -19.2084 142.234)">keyboard input</text><text x="4.777" y="-6.749" class="f3" transform="matrix(1 0 0 1 -69.6052 158.934)">terminal output</text><g id="page1" fill="none" stroke="#000" stroke-miterlimit="10.037" stroke-width=".8"><path d="M-33.9766 7.42581H43.5313V-20.9219H-33.9766Z"/><path d="M136.106 7.42581H213.613V-20.9219H136.106Z"/><path d="M-55.2383 120.813H8.09766V92.4648H-55.2383Z"/><path d="M22.7149 120.813H100.223V92.4648H22.7149Z"/><path d="M129.016 124.801H220.699V88.4726H129.016Z"/><path d="M35.3867 177.504C35.3867 169.676 15.3359 163.332 -9.39841 163.332C-34.1289 163.332 -54.1797 169.676 -54.1797 177.504C-54.1797 185.332 -34.1289 191.68 -9.39841 191.68C15.3359 191.68 35.3867 185.332 35.3867 177.504Z"/><path stroke-width="1.2" d="M-69.8086 139.375H235.27V-49.2695H-69.8086Z"/><path stroke-dasharray="3 3" d="M43.9297 -6.75H130.32"/><path d="M134.445 -6.75L128.594 -8.71094L130.519 -6.75L128.594 -4.78516Z"/><path stroke-dasharray="3 3" stroke-width="1.2" d="M-70.4062 45.0508H235.867"/><path d="M106.008 106.637H123.234"/><path d="M101.883 106.637L107.734 108.602L105.808 106.637L107.734 104.676Z"/><path d="M127.359 106.637L121.504 104.676L123.433 106.637L121.504 108.602Z"/><path stroke-dasharray=".8 2" d="M22.1445 -21.3203C-20.375 -26.9922 1.05859 -57.7734 24.1172 -62.3867"/><path d="M28.168 -63.1953L22.0313 -63.9726L24.3125 -62.4257L22.8008 -60.1171Z"/><path d="M-38.1445 92.0664L-17.4023 13.0312"/><path d="M-16.3554 9.04301L-19.7422 14.2071L-17.3515 12.8399L-15.9453 15.2071Z"/><path d="M-30.6133 86.8555L-9.79691 7.82421"/><path d="M-31.664 90.8477L-28.2695 85.6836L-30.664 87.0508L-32.0703 84.6836Z"/><path d="M40.6563 92.0664L16.5508 12.9766"/><path d="M15.3477 9.03127L15.1758 15.2071L16.4922 12.7891L18.9375 14.0625Z"/><path d="M47.5938 86.9375L22.1445 7.82421"/><path d="M48.8555 90.8672L48.9336 84.6914L47.6563 87.1289L45.1953 85.8945Z"/><path d="M148.344 88.0742L153.664 13.1914"/><path d="M153.953 9.07809L151.582 14.7773L153.675 12.9922L155.496 15.0586Z"/><path d="M156.719 82.707L162.629 7.82421"/><path d="M156.391 86.8164L158.813 81.1328L156.703 82.9023L154.895 80.8242Z"/><path d="M-19.5976 126.5L-13.3633 157.672"/><path d="M-20.4101 122.449L-21.1875 128.582L-19.6367 126.3L-17.3281 127.812Z"/><path d="M-12.5507 161.723L-11.7734 155.586L-13.3242 157.867L-15.6289 156.356Z"/></g><g id="page2"><path d="M101.883 106.637L107.734 108.602L105.808 106.637L107.734 104.676Z"/><path d="M134.445 -6.75L128.594 -8.71094L130.519 -6.75L128.594 -4.78516Z"/><path d="M127.359 106.637L121.504 104.676L123.433 106.637L121.504 108.602Z"/><path d="M28.168 -63.1953L22.0313 -63.9726L24.3125 -62.4257L22.8008 -60.1171Z"/><path d="M-16.3554 9.04301L-19.7422 14.2071L-17.3515 12.8399L-15.9453 15.2071Z"/><path d="M-31.664 90.8477L-28.2695 85.6836L-30.664 87.0508L-32.0703 84.6836Z"/><path d="M15.3477 9.03127L15.1758 15.2071L16.4922 12.7891L18.9375 14.0625Z"/><path d="M48.8555 90.8672L48.9336 84.6914L47.6563 87.1289L45.1953 85.8945Z"/><path d="M153.953 9.07809L151.582 14.7773L153.675 12.9922L155.496 15.0586Z"/><path d="M156.391 86.8164L158.813 81.1328L156.703 82.9023L154.895 80.8242Z"/><path d="M-20.4101 122.449L-21.1875 128.582L-19.6367 126.3L-17.3281 127.812Z"/><path d="M-12.5507 161.723L-11.7734 155.586L-13.3242 157.867L-15.6289 156.356Z"/></g></svg>