<svg xmlns="http://www.w3.org/2000/svg" xmlns:xlink="http://www.w3.org/1999/xlink" width="508pt" height="116pt" viewBox="0 0 508.28 116"><g id="graph0" class="graph" transform="scale(1 1) rotate(0) translate(4 112)"><title>UnifiedTypes</title><polygon fill="#fff" stroke="transparent" points="-4 4 -4 -112 504.283 -112 504.283 4 -4 4"/><g id="node1" class="node"><title>Byte</title><ellipse cx="31.335" cy="-90" fill="none" stroke="#000" rx="31.17" ry="18"/><text x="31.335" y="-85.8" fill="#000" font-family="Courier,monospace" font-size="14" text-anchor="middle">Byte</text></g><g id="node2" class="node"><title>Short</title><ellipse cx="117.335" cy="-90" fill="none" stroke="#000" rx="36.784" ry="18"/><text x="117.335" y="-85.8" fill="#000" font-family="Courier,monospace" font-size="14" text-anchor="middle">Short</text></g><g id="edge1" class="edge"><title>Byte-&gt;Short</title><path fill="none" stroke="#000" d="M62.9127,-90C65.3641,-90 67.8155,-90 70.2668,-90"/><polygon fill="#000" stroke="#000" points="70.345 -93.5 80.345 -90 70.345 -86.5 70.345 -93.5"/></g><g id="node3" class="node"><title>Int</title><ellipse cx="199.335" cy="-90" fill="none" stroke="#000" rx="27" ry="18"/><text x="199.335" y="-85.8" fill="#000" font-family="Courier,monospace" font-size="14" text-anchor="middle">Int</text></g><g id="edge2" class="edge"><title>Short-&gt;Int</title><path fill="none" stroke="#000" d="M154.1705,-90C156.7948,-90 159.4191,-90 162.0434,-90"/><polygon fill="#000" stroke="#000" points="162.166 -93.5 172.166 -90 162.166 -86.5 162.166 -93.5"/></g><g id="node4" class="node"><title>Long</title><ellipse cx="275.335" cy="-90" fill="none" stroke="#000" rx="31.17" ry="18"/><text x="275.335" y="-85.8" fill="#000" font-family="Courier,monospace" font-size="14" text-anchor="middle">Long</text></g><g id="edge3" class="edge"><title>Int-&gt;Long</title><path fill="none" stroke="#000" d="M226.3502,-90C228.8257,-90 231.3013,-90 233.7768,-90"/><polygon fill="#000" stroke="#000" points="233.954 -93.5 243.954 -90 233.954 -86.5 233.954 -93.5"/></g><g id="node5" class="node"><title>Float</title><ellipse cx="361.335" cy="-90" fill="none" stroke="#000" rx="36.784" ry="18"/><text x="361.335" y="-85.8" fill="#000" font-family="Courier,monospace" font-size="14" text-anchor="middle">Float</text></g><g id="edge4" class="edge"><title>Long-&gt;Float</title><path fill="none" stroke="#000" d="M306.9127,-90C309.3641,-90 311.8155,-90 314.2668,-90"/><polygon fill="#000" stroke="#000" points="314.345 -93.5 324.345 -90 314.345 -86.5 314.345 -93.5"/></g><g id="node6" class="node"><title>Double</title><ellipse cx="458.335" cy="-90" fill="none" stroke="#000" rx="41.897" ry="18"/><text x="458.335" y="-85.8" fill="#000" font-family="Courier,monospace" font-size="14" text-anchor="middle">Double</text></g><g id="edge5" class="edge"><title>Float-&gt;Double</title><path fill="none" stroke="#000" d="M398.0885,-90C400.6968,-90 403.3051,-90 405.9134,-90"/><polygon fill="#000" stroke="#000" points="405.974 -93.5 415.974 -90 405.974 -86.5 405.974 -93.5"/></g><g id="node7" class="node"><title>Char</title><ellipse cx="199.335" cy="-18" fill="none" stroke="#000" rx="31.17" ry="18"/><text x="199.335" y="-13.8" fill="#000" font-family="Courier,monospace" font-size="14" text-anchor="middle">Char</text></g><g id="edge6" class="edge"><title>Char-&gt;Int</title><path fill="none" stroke="#000" d="M199.3346,-36.1686C199.3346,-43.869 199.3346,-53.0257 199.3346,-61.5834"/><polygon fill="#000" stroke="#000" points="195.835 -61.587 199.335 -71.587 202.835 -61.587 195.835 -61.587"/></g></g></svg>