<svg xmlns="http://www.w3.org/2000/svg" xmlns:xlink="http://www.w3.org/1999/xlink" width="1100pt" height="332pt" viewBox="0 0 1099.82 332"><g id="graph0" class="graph" transform="scale(1 1) rotate(0) translate(4 328)"><title>UnifiedTypes</title><polygon fill="#fff" stroke="transparent" points="-4 4 -4 -328 1095.818 -328 1095.818 4 -4 4"/><g id="node1" class="node"><title>AnyVal</title><ellipse cx="425.949" cy="-234" fill="none" stroke="#000" rx="41.897" ry="18"/><text x="425.949" y="-229.8" fill="#000" font-family="Courier,monospace" font-size="14" text-anchor="middle">AnyVal</text></g><g id="node2" class="node"><title>Any</title><ellipse cx="603.948" cy="-306" fill="none" stroke="#000" rx="27" ry="18"/><text x="603.948" y="-301.8" fill="#000" font-family="Courier,monospace" font-size="14" text-anchor="middle">Any</text></g><g id="edge1" class="edge"><title>AnyVal-&gt;Any</title><path fill="none" stroke="#000" d="M456.5478,-246.3772C488.5266,-259.3125 538.5158,-279.5328 571.2552,-292.7757"/><polygon fill="#000" stroke="#000" points="570.24 -296.141 580.823 -296.646 572.865 -289.651 570.24 -296.141"/></g><g id="node3" class="node"><title>AnyRef (java.lang.Object)</title><ellipse cx="869.948" cy="-234" fill="none" stroke="#000" rx="142.561" ry="18"/><text x="869.948" y="-229.8" fill="#000" font-family="Courier,monospace" font-size="14" text-anchor="middle">AnyRef (java.lang.Object)</text></g><g id="edge2" class="edge"><title>AnyRef (java.lang.Object)-&gt;Any</title><path fill="none" stroke="#000" d="M809.589,-250.3379C756.9415,-264.5884 682.3882,-284.7682 639.0113,-296.5093"/><polygon fill="#000" stroke="#000" points="637.946 -293.172 629.207 -299.163 639.774 -299.929 637.946 -293.172"/></g><g id="node4" class="node"><title>Double</title><ellipse cx="41.949" cy="-162" fill="none" stroke="#000" rx="41.897" ry="18"/><text x="41.949" y="-157.8" fill="#000" font-family="Courier,monospace" font-size="14" text-anchor="middle">Double</text></g><g id="edge3" class="edge"><title>Double-&gt;AnyVal</title><path fill="none" stroke="#000" d="M73.2361,-174.0301C79.69,-176.2314 86.4893,-178.3505 92.9485,-180 191.2519,-205.1039 308.9971,-220.9598 374.858,-228.5884"/><polygon fill="#000" stroke="#000" points="374.639 -232.086 384.972 -229.742 375.433 -225.131 374.639 -232.086"/></g><g id="node5" class="node"><title>Float</title><ellipse cx="138.948" cy="-162" fill="none" stroke="#000" rx="36.784" ry="18"/><text x="138.948" y="-157.8" fill="#000" font-family="Courier,monospace" font-size="14" text-anchor="middle">Float</text></g><g id="edge4" class="edge"><title>Float-&gt;AnyVal</title><path fill="none" stroke="#000" d="M166.928,-173.7316C172.8217,-175.9811 179.0437,-178.1947 184.9485,-180 250.4094,-200.0135 327.9487,-216.0658 377.0449,-225.3144"/><polygon fill="#000" stroke="#000" points="376.603 -228.792 387.075 -227.184 377.886 -221.911 376.603 -228.792"/></g><g id="node6" class="node"><title>Long</title><ellipse cx="224.948" cy="-162" fill="none" stroke="#000" rx="31.17" ry="18"/><text x="224.948" y="-157.8" fill="#000" font-family="Courier,monospace" font-size="14" text-anchor="middle">Long</text></g><g id="edge5" class="edge"><title>Long-&gt;AnyVal</title><path fill="none" stroke="#000" d="M249.3236,-173.431C254.4453,-175.7023 259.843,-178.0008 264.9485,-180 304.0075,-195.295 349.3822,-210.269 381.987,-220.5542"/><polygon fill="#000" stroke="#000" points="381.086 -223.94 391.675 -223.591 383.179 -217.26 381.086 -223.94"/></g><g id="node7" class="node"><title>Int</title><ellipse cx="300.949" cy="-162" fill="none" stroke="#000" rx="27" ry="18"/><text x="300.949" y="-157.8" fill="#000" font-family="Courier,monospace" font-size="14" text-anchor="middle">Int</text></g><g id="edge6" class="edge"><title>Int-&gt;AnyVal</title><path fill="none" stroke="#000" d="M321.5897,-173.8893C340.6048,-184.842 369.1868,-201.3053 391.6335,-214.2346"/><polygon fill="#000" stroke="#000" points="390.109 -217.395 400.521 -219.354 393.603 -211.33 390.109 -217.395"/></g><g id="node8" class="node"><title>Short</title><ellipse cx="382.949" cy="-162" fill="none" stroke="#000" rx="36.784" ry="18"/><text x="382.949" y="-157.8" fill="#000" font-family="Courier,monospace" font-size="14" text-anchor="middle">Short</text></g><g id="edge7" class="edge"><title>Short-&gt;AnyVal</title><path fill="none" stroke="#000" d="M393.3576,-179.4292C398.4432,-187.9447 404.669,-198.3692 410.3114,-207.817"/><polygon fill="#000" stroke="#000" points="407.354 -209.691 415.486 -216.482 413.364 -206.102 407.354 -209.691"/></g><g id="node9" class="node"><title>Byte</title><ellipse cx="468.949" cy="-162" fill="none" stroke="#000" rx="31.17" ry="18"/><text x="468.949" y="-157.8" fill="#000" font-family="Courier,monospace" font-size="14" text-anchor="middle">Byte</text></g><g id="edge8" class="edge"><title>Byte-&gt;AnyVal</title><path fill="none" stroke="#000" d="M458.7581,-179.063C453.6389,-187.6346 447.3239,-198.2086 441.6056,-207.7835"/><polygon fill="#000" stroke="#000" points="438.487 -206.179 436.364 -216.559 444.497 -209.768 438.487 -206.179"/></g><g id="node10" class="node"><title>Unit</title><ellipse cx="549.948" cy="-162" fill="none" stroke="#000" rx="31.17" ry="18"/><text x="549.948" y="-157.8" fill="#000" font-family="Courier,monospace" font-size="14" text-anchor="middle">Unit</text></g><g id="edge9" class="edge"><title>Unit-&gt;AnyVal</title><path fill="none" stroke="#000" d="M527.7798,-174.8722C508.884,-185.8439 481.4284,-201.7858 459.7863,-214.3523"/><polygon fill="#000" stroke="#000" points="457.799 -211.459 450.909 -219.507 461.314 -217.512 457.799 -211.459"/></g><g id="node11" class="node"><title>Boolean</title><ellipse cx="646.948" cy="-162" fill="none" stroke="#000" rx="47.012" ry="18"/><text x="646.948" y="-157.8" fill="#000" font-family="Courier,monospace" font-size="14" text-anchor="middle">Boolean</text></g><g id="edge10" class="edge"><title>Boolean-&gt;AnyVal</title><path fill="none" stroke="#000" d="M610.9491,-173.7283C572.1103,-186.3817 510.2869,-206.5232 468.9283,-219.9975"/><polygon fill="#000" stroke="#000" points="467.822 -216.677 459.398 -223.102 469.991 -223.332 467.822 -216.677"/></g><g id="node12" class="node"><title>Char</title><ellipse cx="743.948" cy="-162" fill="none" stroke="#000" rx="31.17" ry="18"/><text x="743.948" y="-157.8" fill="#000" font-family="Courier,monospace" font-size="14" text-anchor="middle">Char</text></g><g id="edge11" class="edge"><title>Char-&gt;AnyVal</title><path fill="none" stroke="#000" d="M719.5705,-173.7538C714.181,-176.0545 708.4389,-178.2829 702.9485,-180 625.6898,-204.1624 532.7792,-219.6288 476.5987,-227.5596"/><polygon fill="#000" stroke="#000" points="475.973 -224.113 466.548 -228.953 476.934 -231.047 475.973 -224.113"/></g><g id="node13" class="node"><title>List</title><ellipse cx="824.948" cy="-162" fill="none" stroke="#000" rx="31.17" ry="18"/><text x="824.948" y="-157.8" fill="#000" font-family="Courier,monospace" font-size="14" text-anchor="middle">List</text></g><g id="edge12" class="edge"><title>List-&gt;AnyRef (java.lang.Object)</title><path fill="none" stroke="#000" d="M835.6129,-179.063C840.8913,-187.5086 847.3848,-197.8981 853.2987,-207.3604"/><polygon fill="#000" stroke="#000" points="850.465 -209.43 858.733 -216.055 856.401 -205.72 850.465 -209.43"/></g><g id="node14" class="node"><title>Option</title><ellipse cx="915.948" cy="-162" fill="none" stroke="#000" rx="41.897" ry="18"/><text x="915.948" y="-157.8" fill="#000" font-family="Courier,monospace" font-size="14" text-anchor="middle">Option</text></g><g id="edge13" class="edge"><title>Option-&gt;AnyRef (java.lang.Object)</title><path fill="none" stroke="#000" d="M904.8132,-179.4292C899.4533,-187.8185 892.9097,-198.0608 886.9452,-207.3965"/><polygon fill="#000" stroke="#000" points="883.896 -205.668 881.462 -215.979 889.795 -209.437 883.896 -205.668"/></g><g id="node15" class="node"><title>YourClass</title><ellipse cx="1033.948" cy="-162" fill="none" stroke="#000" rx="57.739" ry="18"/><text x="1033.948" y="-157.8" fill="#000" font-family="Courier,monospace" font-size="14" text-anchor="middle">YourClass</text></g><g id="edge14" class="edge"><title>YourClass-&gt;AnyRef (java.lang.Object)</title><path fill="none" stroke="#000" d="M1000.3649,-176.744C976.9121,-187.0404 945.2269,-200.9509 918.9609,-212.4824"/><polygon fill="#000" stroke="#000" points="917.304 -209.387 909.554 -216.612 920.118 -215.797 917.304 -209.387"/></g><g id="node16" class="node"><title>Null</title><ellipse cx="869.948" cy="-90" fill="none" stroke="#000" rx="31.17" ry="18"/><text x="869.948" y="-85.8" fill="#000" font-family="Courier,monospace" font-size="14" text-anchor="middle">Null</text></g><g id="edge15" class="edge"><title>Null-&gt;List</title><path fill="none" stroke="#000" d="M859.2841,-107.063C853.8716,-115.723 847.1817,-126.4269 841.1489,-136.0793"/><polygon fill="#000" stroke="#000" points="838.181 -134.224 835.849 -144.559 844.117 -137.934 838.181 -134.224"/></g><g id="edge16" class="edge"><title>Null-&gt;Option</title><path fill="none" stroke="#000" d="M880.8498,-107.063C886.3826,-115.723 893.2212,-126.4269 899.388,-136.0793"/><polygon fill="#000" stroke="#000" points="896.472 -138.017 904.806 -144.559 902.371 -134.248 896.472 -138.017"/></g><g id="edge17" class="edge"><title>Null-&gt;YourClass</title><path fill="none" stroke="#000" d="M894.8565,-100.9353C920.3552,-112.1298 960.4755,-129.7436 991.0879,-143.1832"/><polygon fill="#000" stroke="#000" points="989.693 -146.393 1000.256 -147.208 992.507 -139.984 989.693 -146.393"/></g><g id="node17" class="node"><title>Nothing</title><ellipse cx="436.949" cy="-18" fill="none" stroke="#000" rx="47.012" ry="18"/><text x="436.949" y="-13.8" fill="#000" font-family="Courier,monospace" font-size="14" text-anchor="middle">Nothing</text></g><g id="edge18" class="edge"><title>Nothing-&gt;Double</title><path fill="none" stroke="#000" d="M394.7552,-26.2354C351.804,-35.2223 283.6583,-51.1556 226.9485,-72 172.6321,-91.9647 112.9658,-122.7084 76.4783,-142.5902"/><polygon fill="#000" stroke="#000" points="74.354 -139.764 67.272 -147.644 77.722 -145.9 74.354 -139.764"/></g><g id="edge19" class="edge"><title>Nothing-&gt;Float</title><path fill="none" stroke="#000" d="M401.5293,-30.0026C372.8526,-40.1129 331.6651,-55.5305 296.9485,-72 251.6494,-93.4897 201.7439,-122.9556 170.383,-142.2296"/><polygon fill="#000" stroke="#000" points="168.326 -139.387 161.66 -147.622 172.007 -145.341 168.326 -139.387"/></g><g id="edge20" class="edge"><title>Nothing-&gt;Long</title><path fill="none" stroke="#000" d="M410.8169,-33.3122C393.133,-43.8497 369.3661,-58.3555 348.9485,-72 314.9201,-94.7401 277.0038,-122.6556 252.1646,-141.3113"/><polygon fill="#000" stroke="#000" points="249.832 -138.687 243.952 -147.5 254.045 -144.277 249.832 -138.687"/></g><g id="edge21" class="edge"><title>Nothing-&gt;Int</title><path fill="none" stroke="#000" d="M420.8134,-35.0842C396.3739,-60.9613 349.9282,-110.1391 322.5825,-139.0934"/><polygon fill="#000" stroke="#000" points="319.732 -137.014 315.41 -146.688 324.821 -141.821 319.732 -137.014"/></g><g id="edge22" class="edge"><title>Nothing-&gt;Short</title><path fill="none" stroke="#000" d="M430.2185,-35.9465C420.9115,-60.7653 404.0319,-105.7776 393.1645,-134.7572"/><polygon fill="#000" stroke="#000" points="389.828 -133.687 389.594 -144.28 396.382 -136.145 389.828 -133.687"/></g><g id="edge23" class="edge"><title>Nothing-&gt;Byte</title><path fill="none" stroke="#000" d="M440.9366,-35.9465C446.398,-60.5226 456.2594,-104.8992 462.7046,-133.9026"/><polygon fill="#000" stroke="#000" points="459.324 -134.825 464.91 -143.827 466.157 -133.306 459.324 -134.825"/></g><g id="edge24" class="edge"><title>Nothing-&gt;Unit</title><path fill="none" stroke="#000" d="M450.5789,-35.3698C470.5604,-60.8329 507.8955,-108.4104 530.6774,-137.4422"/><polygon fill="#000" stroke="#000" points="528.041 -139.752 536.968 -145.458 533.548 -135.431 528.041 -139.752"/></g><g id="edge25" class="edge"><title>Nothing-&gt;Boolean</title><path fill="none" stroke="#000" d="M460.2245,-33.9607C498.089,-59.9249 573.0602,-111.3338 615.5841,-140.493"/><polygon fill="#000" stroke="#000" points="613.662 -143.418 623.888 -146.187 617.62 -137.645 613.662 -143.418"/></g><g id="edge26" class="edge"><title>Nothing-&gt;Char</title><path fill="none" stroke="#000" d="M467.8482,-31.813C491.9155,-42.6221 526.1327,-58.1001 555.9485,-72 610.2913,-97.3342 673.0453,-127.5766 710.5571,-145.7606"/><polygon fill="#000" stroke="#000" points="709.46 -149.118 719.985 -150.334 712.515 -142.82 709.46 -149.118"/></g><g id="edge27" class="edge"><title>Nothing-&gt;Null</title><path fill="none" stroke="#000" d="M480.4487,-25.2333C564.5647,-39.2202 748.3836,-69.786 829.7841,-83.3214"/><polygon fill="#000" stroke="#000" points="829.212 -86.774 839.651 -84.962 830.36 -79.869 829.212 -86.774"/></g></g></svg>