<svg xmlns="http://www.w3.org/2000/svg" role="img" viewBox="-4.59 -13.59 170 170"><title>Ceph logo</title><defs><clipPath id="a"><path d="M0 1765.9V0h1283.94v1765.9H0z"/></clipPath></defs><g clip-path="url(#a)" transform="matrix(0.13, 0, 0, -0.13, -3, 230.738007)"><path fill="#f0424d" d="M987.875 796.656c-38.934 20.715-61.172 44.063-66.094 69.414-4.746 24.547 6.203 51.848 33.508 83.489 65.251 74.861 101.191 171.031 101.191 270.811 0 227.54-185.128 412.69-412.691 412.69-.371 0-1.82-.02-1.82-.02s-1.485.02-1.875.02c-227.571 0-412.672-185.15-412.672-412.69 0-99.78 35.933-195.95 101.207-270.843 27.508-31.851 38.195-58.047 33.633-82.371-4.735-25.324-27.024-48.996-66.301-70.468-60.223 50.195-113.477 117.257-146.328 184.519a544.32 544.32 0 0 0-40.778 114.573c-9.52 40.62-14.289 82.54-14.289 124.59 0 73.59 14.399 145.07 42.856 212.38 27.504 64.94 66.816 123.3 116.93 173.37 50.058 50.1 108.414 89.41 173.375 116.9 67.296 28.46 138.738 42.88 212.367 42.88h3.695c73.629 0 145.082-14.42 212.387-42.88 64.941-27.49 123.293-66.8 173.374-116.9 50.07-50.07 89.42-108.43 116.91-173.37 28.46-67.31 42.89-138.79 42.89-212.38 0-42.05-4.82-83.97-14.31-124.59a542.709 542.709 0 0 0-40.8-114.573c-32.85-67.289-86.06-134.344-146.365-184.551"/><path fill="#f0424d" d="M786.578 694.59c-6.34 3.988-28 20.101-49.113 49.351-20.254 27.95-44.086 74.317-42.84 136.411.781 37.371 8.273 73.761 22.313 108.117 13.937 34.061 33.925 65.271 59.386 92.731l.156.21c1.875 2.18 3.731 4.35 5.625 6.5 9.61 11.15 19.54 22.66 27.461 36.13 9.766 16.56 16.875 33.96 21.102 51.76 6.504 27.49 6.887 56.67 1.066 84.35-5.371 25.45-16.191 50.11-31.3 71.37-14.637 20.6-33.7 38.57-55.157 51.95-22.363 13.97-48.054 23.32-74.222 27.03a191.981 191.981 0 0 1-27.16 1.92h-3.915c-9.152 0-18.3-.65-27.132-1.92-26.153-3.71-51.84-13.06-74.227-27.03-21.453-13.38-40.555-31.35-55.18-51.95-15.105-21.26-25.875-45.92-31.293-71.37-5.804-27.68-5.453-56.86 1.098-84.35 4.211-17.8 11.32-35.2 21.066-51.76 7.961-13.47 17.876-24.98 27.489-36.13 1.89-2.15 3.73-4.32 5.64-6.5l.114-.21c25.504-27.46 45.472-58.67 59.41-92.731 14.031-34.356 21.551-70.746 22.293-108.117 1.262-62.094-22.574-108.461-42.805-136.411-21.156-29.25-42.797-45.363-49.144-49.351a534.806 534.806 0 0 0-31.629 9.519 544.07 544.07 0 0 0-90.891 40.063c49.875 26.832 81.574 79.215 81.574 136.305 0 37.777-14.683 74.015-43.633 107.656-.429.512-.875.926-1.207 1.262-.058.085-.152.136-.222.23a1039.77 1039.77 0 0 1-8.43 9.262c-8.316 9.133-16.199 17.763-23.238 27.213-26.266 35.08-45.508 76.22-55.664 118.95-11.039 46.46-11.657 95.74-1.797 142.51 9.074 43.12 27.414 84.94 52.969 120.92 24.722 34.81 56.945 65.15 93.175 87.74 37.957 23.68 81.465 39.51 125.805 45.83 15.016 2.16 30.399 3.21 45.766 3.21h4.101c15.371 0 30.797-1.05 45.793-3.21 44.356-6.32 87.84-22.15 125.801-45.83 36.23-22.59 68.465-52.93 93.191-87.74 25.539-35.98 43.879-77.8 52.989-120.92 9.824-46.77 9.191-96.05-1.817-142.51-10.183-42.73-29.402-83.87-55.703-118.95-7.051-9.45-14.902-18.08-23.25-27.213a2888.707 2888.707 0 0 1-8.39-9.262c-.098-.074-.164-.145-.262-.23-.332-.336-.801-.77-1.203-1.329-29.344-35.117-43.621-70.324-43.621-107.589 0-57.09 31.699-109.473 81.629-136.305a544.663 544.663 0 0 0-90.907-40.063 536.678 536.678 0 0 0-31.66-9.519"/><path fill="#f0424d" d="M641.93 1107.47c-59.375 0-107.707 48.32-107.707 107.71 0 59.4 48.332 107.72 107.707 107.72 59.375 0 107.683-48.32 107.683-107.72 0-59.39-48.308-107.71-107.683-107.71"/></g></svg>