<?xml version="1.0" encoding="utf-8"?>
<svg role="img" viewBox="36.15 51.15 660 660" xmlns="http://www.w3.org/2000/svg">
  <title>Apache Hadoop logo</title>
  <g fill="#66c2e3">
    <path d="M2084.35 578.881h13.27v2.836c-1.648.003-3.296 0-4.944.003l.001 13.868h-3.377c.002-4.623 0-9.245 0-13.868-1.65-.004-3.3 0-4.95-.003v-2.836zm15.394 16.707c.002-5.57 0-11.139.003-16.708 1.683.001 3.367-.002 5.05.001l3.03 11.392c1.004-3.796 1.999-7.594 2.998-11.39 1.684-.006 3.37-.002 5.055-.003l-.001 16.71c-1.043-.002-2.084 0-3.126 0-.005-4.381.005-8.761-.005-13.14-1.104 4.38-2.212 8.759-3.317 13.14-1.08 0-2.161-.002-3.242 0-1.103-4.377-2.199-8.755-3.302-13.132-.002 4.377.001 8.755-.001 13.131-1.047-.001-2.095.001-3.142-.001z"/>
  </g>
  <g transform="matrix(1, 0, 0, 1, -8, 0)">
    <path d="M149.901 423.85l-2.87 7.809-5.494-2.015c.956-2.602 1.915-5.208 2.869-7.809zm-2.87 7.809l-4.267 11.613-5.495-2.015c1.421-3.87 2.846-7.745 4.268-11.613zm-4.267 11.613l-.687 1.063-2.06-2.07zm-.687 1.063c-3.12 3.088-6.242 6.182-9.363 9.272l-4.12-4.143 9.363-9.271zm-9.363 9.272l-8.304 8.224-4.12-4.142c2.768-2.74 5.537-5.484 8.304-8.225zm-8.304 8.224a192.462 192.462 0 0 1-2.076 2.033l-4.052-4.235a376.37 376.37 0 0 0 2.008-1.94zm-2.076 2.033c-3.748 3.608-4.49 4.324-3.41 10.771l-5.77.963c-1.59-9.5-.48-10.57 5.128-15.969zm-3.41 10.771c.87 5.191 2.596 10.488 5.306 15.643l-5.198 2.725a57.988 57.988 0 0 1-5.878-17.405zm5.306 15.643c2.515 4.789 5.863 9.426 10.137 13.711l-4.143 4.12c-4.742-4.755-8.437-9.862-11.192-15.106zm10.137 13.711c5.467 5.482 14.393 12.274 23.682 15.803l-2.06 5.473c-10.152-3.858-19.847-11.223-25.765-17.155zm23.682 15.803c6.462 2.456 13.047 3.301 18.55.866l2.358 5.357c-7.1 3.142-15.195 2.205-22.968-.75zm18.55.866l5.654-2.503-1.648 5.96-2.827-.779zm4.006 3.457a110.596 110.596 0 0 1-2.583 8.119l-5.517-1.993a104.928 104.928 0 0 0 2.446-7.683zm-2.583 8.119a103.548 103.548 0 0 1-3.141 7.71l-5.335-2.427a97.857 97.857 0 0 0 2.96-7.276zm-3.141 7.71c-4.951 10.855.237 16.57 8.279 20.239l-2.427 5.334c-11.004-5.018-18.073-12.9-11.187-28zm8.279 20.239c5.139 2.342 11.357 3.962 17.136 5.468l-1.465 5.654c-6.072-1.58-12.605-3.283-18.098-5.788zm17.136 5.468c1.527.395 3.007.782 4.07 1.069l-1.488 5.655a364.195 364.195 0 0 0-4.047-1.07zm4.07 1.069c6.968 1.884 19.016 5.34 29.846 6.026l-.367 5.86c-11.348-.72-23.773-4.286-30.967-6.231zm29.846 6.026c9.787.62 18.513-1.03 20.533-8.523l5.655 1.487c-2.997 11.122-14.168 13.681-26.555 12.896zm20.533-8.523c1.068-3.97 1.688-7.037 1.946-10.077l5.86.48c-.28 3.303-.966 6.679-2.151 11.084zm1.946-10.077c.26-3.056.153-6.022-.223-9.783l5.815-.55c.423 4.235.546 7.523.268 10.813zm-.223-9.783l.229-1.465 2.678 1.19zm.229-1.465c3.942-8.8 5.567-11.177 8.436-15.38l4.83 3.298c-2.653 3.884-4.155 6.084-7.909 14.462zm8.436-15.38c.293-.429.543-.794 1.281-1.89l4.853 3.273c-.186.277-.797 1.171-1.304 1.915zm1.281-1.89c2.237-3.318 3.266-5.535 3.595-7.827l5.792.802c-.47 3.282-1.768 6.193-4.534 10.298zm3.595-7.827c.344-2.407-.002-5.28-.524-9.672l5.815-.665c.572 4.822.954 7.975.501 11.14zm-.524-9.672c-.143-1.2-.261-2.15-.344-2.77l5.793-.732c.175 1.318.296 2.247.366 2.837zm-.344-2.77a286.98 286.98 0 0 0-.413-2.887l5.792-.848c.09.623.227 1.596.414 3.003zm-.413-2.887l-.572-3.909 3.903.589-.435 2.896zm3.33-3.32a171.805 171.805 0 0 0 24.515 1.915l-.023 5.86a177.63 177.63 0 0 1-25.361-1.983zm24.515 1.915c8.116.052 16.188-.46 24.33-1.47l.686 5.815c-8.388 1.04-16.697 1.568-25.039 1.515zm24.33-1.47l1.808 5.448-1.465-2.54zm1.808 5.448c-4.73 2.756-9.45 5.183-15.474 8.278l-2.678-5.22c5.945-3.054 10.604-5.45 15.222-8.14zm-15.474 8.278l-1.344.69-2.678-5.22 1.344-.69zm-1.344.69c-6.19 3.183-6.247 9.864-4.06 16.863l-5.586 1.74c-2.995-9.588-2.596-18.906 6.968-23.823zm-4.06 16.863c2.48 7.942 7.747 16.3 11.053 21.396l-4.9 3.182c-3.483-5.368-9.038-14.193-11.739-22.838zm11.053 21.396c6.92 10.666 13.448 19.646 20.943 24.24l-3.045 4.99c-8.475-5.194-15.47-14.753-22.798-26.048zm20.943 24.24c7.082 4.34 15.362 4.743 26.33-1.191l2.77 5.174c-13.106 7.093-23.257 6.455-32.145 1.007zm26.33-1.191c5.183-2.805 6.922-5.852 9.265-9.957l5.105 2.885c-2.83 4.959-4.932 8.637-11.6 12.246zm9.265-9.957c.932-1.633 1.956-3.422 3.453-5.66l4.853 3.25c-1.2 1.791-2.246 3.624-3.2 5.295zm3.453-5.66l1.019-.949 1.408 2.575zm1.019-.949c1.71-.94 9.019-6.976 16.126-12.85l3.732 4.51c-7.35 6.075-14.91 12.32-17.043 13.49zm16.126-12.85c3.66-3.022 7.27-6.005 9.142-7.517l3.685 4.577c-3.428 2.77-6.249 5.1-9.095 7.45zm9.142-7.517l2.245-1.813 1.853 2.224-2.256 1.878zm4.098.411c1.168 1.402 3.016 2.269 5.528 2.87l-1.35 5.7c-3.746-.895-6.62-2.334-8.689-4.815zm5.528 2.87c2.884.69 6.673 1.028 11.263 1.358l-.413 5.86c-4.81-.347-8.827-.71-12.2-1.518zm11.263 1.358c3.6.26 15.098.255 22.524.253v5.86c-7.587.003-19.334.009-22.937-.253zm22.524.253c2.355-.001 4.311-.001 5.482.005l-.024 5.86c-1.169-.007-3.116-.005-5.46-.005v-5.86zm5.482.005c6.92.043 12.405-.264 16.027-2.317l2.885 5.105c-4.78 2.708-11.103 3.12-18.934 3.072l.023-5.86zm16.027-2.317c3.31-1.875 5.299-5.569 5.794-12.477l5.86.413c-.657 9.168-3.675 14.283-8.769 17.17zm5.794-12.477c.253-3.548.313-5.665-.086-7.48l5.723-1.26c.564 2.568.513 5.079.223 9.153zm-.086-7.48c-.399-1.816-1.339-3.7-3.08-6.794l5.128-2.862c2.008 3.568 3.111 5.832 3.675 8.397zm-3.08-6.794l-.366-1.362 2.93-.069zm-.366-1.362c-.113-4.205-.228-8.412-.338-12.617l5.86-.138c.11 4.205.225 8.413.338 12.618zm-.338-12.617c-.112-4.205-.227-8.413-.337-12.616l5.86-.138c.11 4.204.225 8.412.337 12.616zm-.337-12.616c-.122-4.515-.61-8.138-1.502-11.66l5.677-1.42c1.004 3.96 1.55 7.985 1.685 12.942zm-1.502-11.66c-.9-3.55-2.242-7.099-4.053-11.412l5.403-2.267c1.904 4.536 3.329 8.321 4.327 12.259zm-4.053-11.412c-1.282-3.049-2.381-6.012-3.457-8.916l5.495-2.015c1.025 2.768 2.072 5.592 3.365 8.664zm2.038-10.942v.011l-2.748 1.008zm-5.495 2.037c-1.675-4.516-3.3-8.898-5.684-13.606l5.242-2.632c2.503 4.94 4.195 9.5 5.937 14.201zm-5.684-13.606l-.264-1.82 2.885.503zm-.264-1.82c.289-1.634.53-3.15.714-4.525l5.793.733c-.24 1.788-.486 3.38-.737 4.8zm.714-4.525a111 111 0 0 0 .504-4.716l5.86.48a117.127 117.127 0 0 1-.571 4.969zm.504-4.716l.546-6.127 4.41 4.25-2.026 2.117zm4.956-1.877c2.87 2.763 5.741 5.53 8.61 8.295l-4.052 4.235-8.61-8.296zm8.61 8.295l6.437 6.202-4.052 4.236-6.437-6.203zm6.437 6.202c4.646 4.477 8.89 8.544 13.601 11.323l-2.975 5.06c-5.274-3.112-9.765-7.413-14.678-12.147zm13.601 11.323c4.53 2.673 9.64 4.223 16.277 3.909l.275 5.86c-7.94.376-14.074-1.492-19.527-4.71zm16.277 3.909c7.163-.337 14.9-3.411 21.33-8.156l3.48 4.715c-7.324 5.404-16.219 8.909-24.535 9.301zm21.33-8.156c6.138-4.526 11.031-10.533 13.019-17.069l5.61 1.695c-2.375 7.805-8.062 14.862-15.148 20.09zm13.019-17.069l2.056-6.77 5.61 1.695-2.056 6.77zm2.056-6.77c.795-2.625 1.595-5.254 2.392-7.88l5.61 1.696c-.797 2.624-1.597 5.254-2.393 7.88zm2.392-7.88l.764-2.512 2.579.488-.538 2.873zm3.343-2.024c11.865 2.242 24.786 3.026 37.204 1.724l.572 5.815c-12.983 1.361-26.474.544-38.851-1.794zm37.204 1.724c10.91-1.144 21.432-3.914 30.476-8.74l2.748 5.176c-9.717 5.185-20.986 8.155-32.652 9.379zm30.476-8.74c13.249-7.07 23.198-17.513 30.362-29.923l5.082 2.908c-7.697 13.334-18.409 24.566-32.696 32.19zm30.362-29.923v-.012l2.541 1.465-2.54-1.453zm0-.012c8.186-14.179 12.772-30.91 14.517-48.143l5.815.55c-1.83 18.066-6.646 35.622-15.25 50.525zm14.517-48.143c1.422-14.045.635-33.2-2.306-51.726l5.77-.916c3.016 19 3.819 38.7 2.351 53.19zm-2.306-51.726c-2.592-16.341-6.858-32.144-12.744-43.41l5.198-2.702c6.176 11.823 10.63 28.263 13.317 45.198zm-12.744-43.41c-.46-.883-1.227-1.846-2.21-2.818l4.097-4.19c1.413 1.397 2.558 2.863 3.31 4.306zm-2.21-2.818c-2.513-2.478-6.245-4.825-10.11-6.155l1.9-5.54c4.694 1.615 9.238 4.477 12.307 7.505zm-10.11-6.155c-3.587-1.234-7.2-1.574-9.781-.225l-2.702-5.198c4.164-2.176 9.408-1.828 14.382-.117zm-9.781-.225a5.96 5.96 0 0 0-1.494 1.104l-4.19-4.098c.897-.909 1.9-1.64 2.982-2.204zm-1.494 1.104c-2.396 2.429-4.499 5.5-6.606 8.578l-4.83-3.297c2.276-3.327 4.549-6.645 7.246-9.379zm-6.606 8.578c-2.773 4.05-5.557 8.116-9.162 11.196l-3.8-4.465c3.048-2.604 5.596-6.325 8.132-10.028zm-9.162 11.196c-4.413 3.77-9.53 5.823-14.28 7.728l-2.176-5.447c4.32-1.732 8.973-3.6 12.656-6.746zm-14.28 7.728c-.83.332-1.642.659-2.158.87l-2.22-5.424c.91-.374 1.559-.635 2.202-.893zm-2.158.87l-2.798 1.154-1.06-2.858 2.748-1.008zm-3.857-1.704c-1.895-5.117-4.22-9.686-6.91-13.982l4.967-3.113a81.23 81.23 0 0 1 7.438 15.08zm-6.91-13.982c-2.72-4.342-5.803-8.387-9.188-12.421l4.487-3.755c3.573 4.257 6.818 8.514 9.668 13.063zm-9.188-12.421c-2.616-3.115-5.154-5.448-7.894-7.535l3.547-4.647a53.64 53.64 0 0 1 8.834 8.427zm-7.894-7.535c-2.735-2.084-5.844-4.036-9.47-6.306l3.112-4.968c3.672 2.3 6.824 4.28 9.905 6.627zm-9.47-6.306c-10.217-6.398-18.78-13.91-27.516-21.574l3.845-4.417c8.552 7.503 16.935 14.856 26.783 21.023zm-27.516-21.574c-3.679-3.225-7.39-6.481-11.538-9.901l3.733-4.533c3.839 3.166 7.763 6.608 11.65 10.017zm-11.538-9.901c-19.351-15.956-37.273-23.687-56.31-24.886l.368-5.86c20.316 1.279 39.312 9.423 59.677 26.213zm-56.31-24.886c-19.178-1.207-39.67 4.164-64.002 14.405l-2.268-5.402c25.154-10.588 46.463-16.132 66.639-14.863zm-64.002 14.405c-11.467 4.826-19.952 10.503-27.316 17.312l-3.96-4.304c7.852-7.261 16.868-13.3 29.008-18.41zm-27.316 17.312c-7.418 6.86-13.797 14.966-20.95 24.535l-4.692-3.503c7.326-9.8 13.888-18.128 21.682-25.336zm-20.95 24.535l-.826 1.107-1.37.071-.15-2.93zm-2.197 1.178c-4.075.212-7.487.705-10.88 2.062l-2.175-5.448c4.109-1.643 8.081-2.232 12.758-2.474zm-10.88 2.062c-3.445 1.376-6.996 3.681-11.346 7.52l-3.87-4.394c4.897-4.322 8.983-6.951 13.04-8.574zm-11.346 7.52a291.769 291.769 0 0 0-9.82 9.085l-4.075-4.213a295.617 295.617 0 0 1 10.025-9.266zm-9.82 9.085l-.011.012-2.027-2.118 2.038 2.107zm-.011.012a345.754 345.754 0 0 0-9.325 9.382l-4.234-4.053c3.1-3.237 6.26-6.425 9.506-9.564zm-9.325 9.382l-1.66.858-.457-2.885zm-1.66.858c-22.904 3.65-41.464 7.656-58.043 14.078l-2.105-5.473c16.95-6.564 35.884-10.654 59.236-14.375zm-58.043 14.078c-16.435 6.366-30.94 15.141-45.857 28.367l-3.87-4.395c15.473-13.718 30.535-22.826 47.623-29.445zm-45.857 28.367c-6.045 5.358-11.258 10.999-15.806 16.953l-4.647-3.547c4.79-6.275 10.26-12.197 16.583-17.801zm-15.806 16.953c-4.549 5.957-8.458 12.265-11.891 18.952l-5.22-2.655c3.578-6.97 7.675-13.572 12.464-19.844zm-11.891 18.952l-.435.63-2.175-1.958zm-.435.63c-3.332 3.681-6.658 7.414-10.225 10.624l-3.914-4.372c3.443-3.101 6.613-6.657 9.79-10.167zm-10.225 10.624c-3.739 3.366-7.792 6.229-12.477 8.033l-2.105-5.472c3.91-1.506 7.395-3.987 10.668-6.933zm-12.477 8.033h-.011l-1.041-2.736zm-.011 0c-3.76 1.445-5.598 2.17-7.68 1.287l2.267-5.403c.095.04 1.04-.476 3.33-1.356zm-7.68 1.287l-.011-.012 1.144-2.69-1.133 2.702zm-.011-.012c-2.197-.932-2.81-2.736-4.169-6.363l5.495-2.038c.772 2.062.756 2.934.963 3.022zm-4.169-6.363l-.764-2.041 1.76-1.324 1.752 2.346zm.996-3.365c5.385-4.046 5.895-12.103 6.386-19.864l5.86.368c-.573 9.074-1.171 18.498-8.743 24.188zm6.386-19.864c.063-1.015.128-2.024.183-2.794l5.86.412c-.077 1.06-.13 1.908-.183 2.75zm.183-2.794l.209-2.86 2.859.136-.138 2.93zm3.068-2.724c4.833.23 7.035 3.64 9.41 7.318l-4.922 3.16c-1.518-2.35-2.926-4.531-4.763-4.618zm9.41 7.318c.663 1.027 1.346 2.084 2.069 2.996l-4.578 3.64c-.91-1.15-1.672-2.329-2.413-3.476zm2.641 5.445l-1.34 5.997-3.81-4.806 2.289-1.82zm-5.723-1.26c.99-4.425 1.748-10.227.677-14.977l5.7-1.283c1.31 5.802.47 12.494-.654 17.52zm.677-14.977c-.68-3.02-2.14-5.617-4.85-7.021l2.677-5.22c4.483 2.322 6.834 6.348 7.873 10.958zm-4.85-7.021l-2.317-1.2.908-2.429 2.747 1.019zm-1.41-3.629a338.02 338.02 0 0 1 1.711-4.415l5.448 2.13a276.193 276.193 0 0 0-1.663 4.323zm1.711-4.415c.864-2.204 1.75-4.465 2.684-7.12l5.54 1.922c-.834 2.373-1.82 4.884-2.776 7.328zm4.961-9.044l4.916-.853-1.653 4.7-2.77-.962zm.985 5.77c-5.674.985-18.17 7.997-27.24 17.411l-4.235-4.052c9.895-10.271 23.95-17.994 30.49-19.129zm-27.24 17.411c-3.287 3.412-6.074 7.098-7.834 10.853l-5.31-2.45c2.074-4.426 5.234-8.64 8.909-12.455zm-7.834 10.853c-1.68 3.582-2.446 7.248-1.828 10.807l-5.77.984c-.838-4.823.13-9.637 2.288-14.24zm-1.828 10.807c.56 3.233 2.297 6.483 5.567 9.634l-4.053 4.235c-4.239-4.085-6.515-8.443-7.284-12.885zm5.567 9.634l.812 1.419-2.839.698zm.812 1.419c.744 3.027 1.411 5.586 2.137 7.898l-5.585 1.74c-.756-2.41-1.453-5.081-2.23-8.241zm2.137 7.898c.694 2.213 1.451 4.202 2.401 6.178l-5.287 2.518c-1.06-2.207-1.911-4.447-2.699-6.956zm2.401 6.178c2.108 4.384 5.442 7.052 9.285 8.286l-1.785 5.585c-5.312-1.706-9.907-5.363-12.787-11.353zm9.285 8.286c4.483 1.44 9.7.999 14.572-.901l2.13 5.447c-6.092 2.376-12.701 2.897-18.487 1.04zm14.572-.901l5.089-1.985-1.162 5.326-2.862-.618zm3.927 3.341c-1.38 6.332-2.214 12.969-2.493 20.464l-5.86-.205c.292-7.826 1.17-14.799 2.63-21.494zm-2.493 20.464c-.278 7.497.006 15.909.854 25.79l-5.86.48c-.86-10.02-1.145-18.653-.854-26.475zm.854 25.79c.217 2.515.476 4.832.773 6.95l-5.792.778a137.305 137.305 0 0 1-.841-7.248zm.773 6.95c.328 2.335.73 4.725 1.195 7.153l-5.745 1.1a150.295 150.295 0 0 1-1.242-7.475zm1.195 7.153l-.125 1.558-2.748-1.008"/>
    <g fill-rule="evenodd">
      <path fill="#feeb50" stroke="#1f1917" stroke-miterlimit="10" stroke-width=".859" d="M296.623 246.78l-38.579 6.269-35.202 15.43-29.899 18.808-28.451 34.72-16.074 17.024-15.542 5.728-4.11-10.047 7.187-10.374 1.615-14.631 4.814.194 5.26 4.798-1.418-14.903-5.83-3.912.176-5.68-13.813 7.815-12.508 14.757-2.607 13.189 5.348 10.562 4.99 17.943 10.145 4.804 10.673-.524 10.12-5.88-6.75 34.238 6.75 38.096-7.431 17.59-24.34 26.224 4.328 15.668 11.53 18.156 21.741 15.3 11.532 1.578 12.821.435-7.999 32.839 29.417 12.056 36.65 4.822 12.536-8.197.965-22.183 13.985-23.147.965-18.325 33.756 2.412 31.344-2.894-31.344 18.807 5.304 22.665 19.771 30.862 19.29 8.198 15.43-6.269 6.27-12.538 32.31-24.593 6.268 5.304 50.633 1.929 10.127-8.198.964-14.467-3.375-6.268-2.412-39.06-16.877-33.756 2.892-14.95 10.128 5.304 28.451 26.523 13.984.964 15.431-6.269 15.433-11.572 7.715-25.077 45.329 2.893 27.487-10.61 22.182-20.734 15.913-29.899 3.86-35.202-3.377-40.988-8.68-36.648-8.68-11.574-12.055-3.859-21.22 23.148-19.288 6.75-16.878-27.968-16.878-15.431-9.163-5.787-36.649-30.381-29.416-15.913-29.416-2.412-34.237 5.787-29.899 11.091-20.735 16.878-16.396 19.772-16.878 4.822z"/>
      <g fill="#fdf7ba">
        <path d="M184.735 333.844c-33.046 38.542-25.705 85.287-16.547 131.086-4.887-12.35-9.776-24.697-14.663-37.046l-5.403-33.96 1.544-34.73 13.891-33.188 20.84-30.872 32.414-27.012 35.503-14.664 41.676-5.402c-12.864 14.663-25.727 29.328-38.59 43.993-30.985 10.05-49.258 16.818-70.666 41.795"/>
        <path d="M340.286 216.406c-22.973 22.413-35.522 39.317-50.14 65.56-10.457 18.775-22.187 36.855-33.182 55.364-5.561 9.37-6.086 17.227-7.749 28.03l-16.207-19.293 7.718-23.154 26.241-47.079 55.57-54.799 17.751-4.63m113.46-55.577c-18.399 6.899-48.955 9.17-51.078 30.29-1.51 14.997 1.131 22.532 10.171 38.4-22.328-23.105-27.85-19.53-71.003-12.35l18.523-26.241 32.416-20.066 41.676-9.262c6.43-.258 12.862-.514 19.294-.771"/>
      </g>
      <g fill="#edd749">
        <path d="M504.516 446.487c6.126 3.78 5.994 6.52 4.97 9.112 4.832-1.934 9.663-3.866 14.496-5.798l9.39-12.61 6.971-17.967-8.907-6.698-38.93 4.97-2.9 7.869.83 11.182c1.241 2.21 2.484 4.42 3.726 6.627l5.798 2.9c1.52.138 3.038.277 4.556.413m-3.618-66.567c-19.514 5.634-19.361 7.185-25.124 26.545 7.607-12.206 13.24-18.365 25.124-26.545M630.66 235.051c-3.468 1.603-6.846 2.375-9.014 5.548-4.669 6.83-8.67 12.577-16.39 17.372-3.888 2.416-7.91 3.98-12.033 5.265-3.42 1.063-5.474.114-8.386 2.205l5.182.907h11.423l14.083-8.697 8.283-8.698 6.852-13.902m-310.852 43.294c-7.678 21.007-14.385 39.016-26.016 58.035 14.903-16.056 23.937-29.704 32.472-47.857 3.316-7.052 3.942-15.327 13.177-12.25.415 7.042 1.904 14.082 2.318 21.123 4.99-35.77 19.061-50.728 51.77-64.61l-27.749 3.313-26.092 5.797-12.84 18.638-7.04 17.808m63.374-.832c7.054 33.2 17.21 65.064 21.622 98.789 2.865 21.915 3.179 32.444-7.848 51.352-12.05-.779-19.532.58-31.188 4.4-46.403 15.21-73.015 37.576-104.283-7.488 9.981 4.703 19.963 9.407 29.944 14.112l21.346-4.196 37.689-21.95c9.802-1.934 19.604-3.866 29.405-5.798l9.525-39.76-7.04-52.6c-.275-8.283-.552-16.566-.829-24.85.554-4.004 1.106-8.007 1.657-12.01m79.908 205.424c-3.897 26.973 8.976 41.473 3.646 48.923-1.51 2.11-3.555 5.789-5.838 6.797-8.157 3.603-19.37-.673-20.172 1.436h-26.921c-3.588-1.52-7.178-3.038-10.768-4.556l16.567-19.466 16.152-35.203c3.452-11.873 6.904-23.745 10.353-35.618h5.385l11.597 37.689"/>
        <path d="M417.85 404.53c2.186 12.247 5.983 15.156 11.744 27.011-3.835 19.34-9.994 42.34-17.408 59.407-3.126 7.197-5.649 11.164-11.16 16.726-9.306 9.396-18.713 17.582-29.267 25.726-7.595 5.856-12.898 2.919-22.27 1.591-3.986 7.226-5.087 11.24-12.424 14.909-11.283 5.641-21.38-6.516-30.235-13.667l19.178 29.957 13.254 12.426c3.727.551 7.455 1.103 11.182 1.657l14.91-9.113 7.869-14.909 16.566-12.425 20.295-17.395 12.839-18.223c3.864-7.179 7.73-14.358 11.596-21.537l14.91-44.729 1.242-16.98-18.637-8.284c-4.556-4.28-9.629-7.868-14.185-12.147m-148.57 86.271c20.903 0 42.98-1.159 62.122-9.939 5.418-8.128 10.766-14.766 17.395-21.95-6.034 11.396-7.926 17.837-9.526 30.648l-6.213 9.111-47.213 1.243-15.324-1.657a862.267 862.267 0 0 0-1.657-1.656l.415-5.8m-2.898-14.494l-1.622-14.704c-3.571 21.496-2.713 35.901-12.606 55.156-7.39 8.564-16.49 16.355-26.91 20.525.879 5.28 1.142 8.578.631 12.449-1.836 13.923-29.689 7.773-41.147 7.218l55.145 14.198 12.426-4.97c1.38-8.006 2.76-16.014 4.142-24.021l11.595-21.536 2.072-13.253-3.728-31.063M235.32 354.954c-.578 10.452-1.253 14.81 3.356 24.042 5.86 11.734 13.056 22.757 19.424 34.354.689-7.732 1.379-15.462 2.07-23.193l-24.85-35.203m-85.021 78.962l-5.38 11.45c4.935 16.62 9.321 27.149 18.718 41.67-1.636 5.885-2.861 8.458-6.627 13.254-8.27-1.273-15.612-1.64-23.99-1.615 9.25 7.178 18.5 14.357 27.749 21.537l13.667-2.486 13.668-13.667c-6.49-10.078-12.978-20.156-19.466-30.234l-18.34-39.907M630.7 229.525c5.633 25.346 12.898 48.733 12.224 74.689-.827 31.846-7.034 72.073-36.54 91.279-33.044 21.506-71.835 11.334-108.088 2.12a195451.36 195451.36 0 0 1 44.315 18.222l41.418 2.071c9.388-2.762 18.775-5.523 28.163-8.283l21.95-18.224 16.567-34.789 6.212-40.173-4.97-39.345-9.111-38.931-12.138-8.634M137.589 305.06c-15.002 9.764-20.894 14.051-19.25 32.146l4.486 16.26c2.117 1.433 4.236 2.865 6.353 4.3 2.617.87 5.234 1.742 7.85 2.615l14.204-3.365 7.29-22.613c-6.73 3.301-13.457 6.604-20.185 9.905h-4.673l-5.233-8.036 6.355-9.344 3.364-17.755 4.298 1.307c1.744 1.372 3.489 2.742 5.233 4.112l-.748-9.344-3.55-5.98-3.552-2.992-2.242 8.785m336.554-142.563c13.312 12.362 29.654 23.108 40.304 38.217 4.121 5.85 8.7 8.84-.07 17.101 9.267-2.647 12.71-2.36 20.127-1.46 13.494 1.633 26.141 20.814 26.948 34.56-.159 1.286-3.748 4.204-14.181 7.084-.207.401-5.888-.777-5.747-.393 1.084 2.967 2.533 3.421 4.745 4.81.48 3.3.789 8.387 3.036 11.995 6.566-.115 12.981.6 19.41 1.873 2.164 3.588 1.837 7.176 1.657 10.767 2.485-.413 4.97-.828 7.454-1.242l-2.07-16.98 6.626-11.182-9.525-21.537c-6.075-5.798-12.15-11.596-18.224-17.396-.584-.027-1.17-.058-1.754-.086l-20.493-12.577-33.425-27.348-24.817-16.206m22.421 102.012c-.702 1.229-1.763 3.192-3.122 4.551 5.546 5.246 8.282 8.758 10.258 16.177l-18.805 9.338-15.914 15.255c-6.981-3.758-8.721-6.645-12.1-13.81-3.934 1.042-7.662 2.045-10.91.853 2.06.015 3.327-.5 5.386-1.773l10.127-10.521 17.886-13.546 11.706-3.814c1.49-.614 3.997-2.096 5.488-2.71"/>
        <path d="M513.898 283.235c-19.944 10.739-39.047 21.54-49.245 41.934 0-25.887 25.993-37.283 49.245-41.934m-53.232-50.927c-14.81 10.098-25.282 30.475-23.965 50.335-4.825-17.196-3.115-33.445 11.697-45.322l7.496-3.644c1.592-.456 3.182-.91 4.772-1.367"/>
      </g>
      <path d="M488.972 385.605c3.06-1.665 8.617-3.956 11.678-5.622-3.149.532-8.794 1.69-11.942 2.22-8.41 1.42-9.4 3.442-10.705 11.722-.615 3.9-1.462 8.738-2.078 12.638 1.649-4.41 3.632-9.535 5.554-13.74 2.033-4.449 3.178-4.868 7.493-7.218zm-156.049-213.26c6.61-9.914 10.415-13.139 20.586-19.42-13.81 3.327-16.443 5.884-20.586 19.42zm-2.175 21.84c11.566-23.25 20.323-31.811 44.538-43.23-27.388 6.714-35.44 11.488-44.538 43.23zM83.072 315.206c2.538-11.642 4.903-16.034 12.081-25.59-11.644 8.134-13.162 11.476-12.081 25.59zm259.241 194.858c-.35-2.825-.702-5.652-1.054-8.478-.635-5.118-.61-9.278-.202-14.43l1.176-14.96c-1.452 5.068-4.355 10.137-5.807 15.206-.58 2.028-1.061 3.669-1.336 5.186-21.672 4.428-43.187 4.705-64.865.837-1.383-8.025-3.067-16.388-4.479-22.382-.428 6.715-.152 25.276-.187 35.669-.027 8.053-.366 10.81-4.518 17.659-3.888 6.413-5.534 7.868-10.976 18.702.452 6.836.46 11.357-1.356 17.846-3.021 10.786-33.492 2.429-41.532.228-9.9-2.71-30.366-6.737-25.219-19.934 4.53-11.615 7.4-23.86 9.614-40.114-18.137-26.126-35.004-61.93-38.24-93.656-2.513-24.633-1.005-39.795 4.325-54.862 8.446-23.873 20.261-44.538 39.222-61.18 25.574-22.44 49.484-31.455 86.913-37.151-9 10.076-17.907 20.732-27.614 32.157-9.827 11.568-15.667 23.25-21.905 35.901-8.62 17.474-8.435 24.123 2.992 39.463 9.847 13.22 15.163 19.173 19.462 32.106-3.551 7.32-4.842 13.504-6.036 23.499 12.057 13.178 21.016 22.21 32.722 24.992 11.483 2.729 21.073 2.2 31.345-3.051 22.817-11.666 43.93-26.727 69.667-27.35 11.908-29.275 10.704-53.734 4.987-82.056-3.904-19.342-5.469-37.657-6.684-57.379-4.827 20.309-5.732 38.168-2.152 58.397 4.318 24.379 7.674 51.313-4.337 72.737-23.272 1.782-43.218 15.94-64.193 26.804-8.43 4.368-17.208 4.793-26.541 2.231-8.663-2.379-14.508-8.11-23.84-18.873-.146-10.805 2.292-15.793 7.254-25.579 7.973-15.715 16.774-30.344 26.43-45.81-11.825 14.275-23.029 26.199-32.336 40.55-3.557-10.136-8.643-15.281-17.07-26.694-8.231-11.146-9.094-16.028-2.94-28.927 6.189-12.963 11.437-24.357 21.97-35.73 18.198-19.652 34.868-41.524 54.77-60.877 10.805-10.508 15.192-10.145 29.526-12.318 12.954-1.963 25.604-4.443 38.816-7.512-12.779 1.19-25.13 1.63-37.569 1.938-.13.003-.256.008-.385.008 12.238-15.63 19.341-24.34 39.218-32.976 48.94-21.256 80.036-23.554 118.48 8.761 9.963 8.376 18.665 16.507 28.768 23.733-3.663.313-6.82.97-10.995 2.61 5.082-.969 10.95-.008 16.222.955 1.481.96 3.001 1.897 4.561 2.816 7.13 4.201 11.178 6.522 16.001 13.243 5.098 7.102 9.347 14.198 13.093 22.02-2.455-.877-4.512-1.618-6.347-2.164a13.665 13.665 0 0 0-12.87.798c-.1.046-.198.091-.298.14-3.944 1.92-10.056 4.11-14.145 4.774 2.084.72 6.698.99 8.874.128.292-.116.589-.204.893-.277a13.624 13.624 0 0 0-1.82 5.617 13.64 13.64 0 0 0 1.46 7.588l.011.024c.37.869.883 1.67 1.447 2.248-1.87.687-3.777 1.475-5.744 2.33 9.12-1.39 17.342-1.629 26.244-.456a332.33 332.33 0 0 1 1.727 8.804l-3.306.258-.268.024c-4.211-3.367-8.904-2.8-15.314-1.338-19.493 4.446-14.912 15.385-23.882 31.866 9.312-11.383 8.623-23.292 23.797-26.886 3.536-.837 5.943-1.885 8.337-1.525-4.308 2.167-8.035 5.759-9.513 9.93-4.165 11.761-1.578 21.672-6.154 32.657 5.668-9.82 6.01-19.405 11.078-29.737 1.82-3.712 8.576-9.653 12.723-9.744l3.413-.073c1 6.538 1.607 13.028 1.22 18.413-.707 9.824-3.26 24.407-4.787 29.986 5.134-6.6 7.472-20.578 9.727-30.417 2.349-10.247 1.756-22.542-.3-33.548-2.82-15.104 12.734-12.647 21.764-19.764 6.637-5.234 11.206-13.589 17.292-19.508 6.037-5.869 15.54 2.756 17.913 8.494 10.296 24.907 14.987 64.094 12.267 89.203-3.051 28.175-16.661 58.934-41.512 72.805-31.678 17.68-69.032 6.878-100.502-3.725-6.718-2.263-11.389-5.561-17.294-9.281 1.608 7.24 2.338 14.901.2 22.132-3.396 11.47-8.88 30.24 6.696 33.701 5.927 1.318 8.615 1.127 16.985-3.191-6.774 1.531-10.189 1.156-14.844.296-4.22-.777-6.456-3.458-7.635-6.618 1.474 1.065 3.878 1.644 7.985 2.633 11.547 2.783 22.55-2.774 24.702-10.782 1.255-4.678 1.04-7.135 3.7-13.509a123.82 123.82 0 0 0 7.392 2.022l-4.29 13.992c-3.711 12.105-18.169 21.867-30.936 21.643-11.801-.21-19.283-7.602-27.43-14.85a6445.461 6445.461 0 0 0-16.368-14.504c-14.687-4.634-26.46-10.05-40.09-20.142 9.701 11.401 16.283 17.712 29.811 23.385-1.968 20.07-8.943 34.702-14.89 53.908-2.69 8.687-23.938 43.485-29.826 46.88-4.2 2.418-30.497 24.57-35.445 27.491-3.685 4.895-6.919 11.655-12.457 14.583-16.88 8.925-27.726-8.165-36.81-22.6-4.137-6.575-15.62-25.515-5.61-30.82 9.467-5.015 14.768-8.596 24.426-14.936 1.419 2.586 3.855 5.08 5.442 7.665zm58.68 30.6c-8.546 6.904-22.917 19.125-25.705 20.655-5.048 7.536-5.671 12.2-13.76 16.577-24.076 13.029-36.854-2.081-51.105-24.045-6.791-10.466-21.64-34.36-5.883-42.459 6.64-3.413 11.671-5.97 16.69-8.894-16.53 2.051-32.753 2.076-49.623-.462.299 2.035.56 3.972.77 5.749 1.096 9.217 1.456 12.043-3.551 19.47-3.65 5.415-5.057 6.983-9.465 16.822.802 8 .454 12.501-1.803 20.879-5.017 18.618-39.783 8.412-53.952 4.58-17.046-4.608-41.401-8.9-31.409-30.816 2.342-5.134 4.181-10.386 5.565-15.394-14.905 6.597-35.618-7.397-45.484-17.287-9.383-9.408-14.48-20.332-16.256-30.933-1.513-9.022-.128-8.978 6.31-15.357 5.89-5.83 11.779-11.668 17.667-17.495 2.378-6.473 4.76-12.94 7.137-19.41-.926-4.832-1.615-9.652-2.025-14.425-1.71-19.903-1.136-34.076 1.707-47.106-10.37 4.046-22.271 2.15-27.564-8.856-2.013-4.184-3.212-8.446-4.732-14.634-23.135-22.29 20.219-51.511 32.866-53.71-1.445 4.109-3.03 7.867-4.424 11.594 8.577 4.44 7.526 17.092 5.705 25.238-3.086-3.894-4.791-8.986-9.33-9.204-.664 9.211-.549 19.39-7.743 24.8 2.13 5.692 2.018 5.697 8.07 3.37 8.597-3.31 15.07-10.683 21.582-17.878 7.012-13.66 16.002-25.812 28.369-36.776 30.39-26.944 59.116-35.759 105.368-43.13 6.156-6.426 12.519-12.625 19.348-18.653 9.252-8.164 15.26-9.86 24.01-10.316 14.48-19.368 25.874-32.857 49.48-42.793 49.484-20.828 83.594-21.833 123.31 10.916 13.125 10.82 24.318 22.224 38.743 31.257 7.3 4.572 12.517 7.857 18.051 14.448 6.96 8.294 12.645 16.588 16.601 27.264 5.112-2.104 10.941-4.087 15.649-8.11 6.077-5.193 9.944-13.885 15.573-19.59 7.471-7.572 24.515 1.568 28.289 8.792 12.836 24.565 18.087 69.838 15.359 96.76-3.372 33.281-17.091 64.743-46.41 80.39-19.937 10.637-46.693 11.628-69.593 7.3-1.484 4.883-2.962 9.765-4.446 14.649-4.453 14.632-21.834 26.592-37.017 27.31-14.578.687-22.48-6.837-32.04-16.046-5.017-4.832-10.036-9.661-15.052-14.493a109.656 109.656 0 0 1-1.264 9.503c3.949 7.797 5.845 14.652 9.225 22.69 3.719 8.853 5.529 14.663 5.784 24.137l.675 25.233c3.752 6.665 4.08 8.287 3.534 15.914-1.156 16.074-10.009 17.608-24.764 17.515-4.916-.031-23.47.084-28.2-.258-9.402-.68-15.6-1.397-18.84-5.28zm49.75-87.688c-2.969 10.6-6.958 20.606-10.6 32.074-3.447 10.857-21.124 42.384-31.528 50.025 2.025 1.508 5.742 2.098 12.364 2.67 4.685.404 23.154.49 27.791.57 10.21.178 14.085-.59 15.117-12.215.505-5.691.06-6.755-2.787-11.744-.253-8.898-.505-17.798-.755-26.696-.238-8.437-1.857-13.296-5.174-21.157-1.985-4.706-3.063-9.097-4.429-13.526zM139.758 307.36c2.292-.26 3.71.942 5.482 2.713-.328-4.232-1.11-7.37-4.081-9.1a61.086 61.086 0 0 0-.59 2.074c-.36 1.362-.616 2.81-.811 4.313zm14.401 30.582a226.365 226.365 0 0 0-4.622 13.215c-.239.751-.468 1.508-.69 2.26-8.719 3.698-20.182 6.047-24.57-3.115-2.13-4.446-3.333-8.81-4.887-14.43-14.357-14.874 7.104-34.51 18.794-41.553-1.692 3.636-2.893 6.39-3.714 9.223-3.554 12.284 1.61 23.247-9.54 32.152 5.24 10.572 4.999 14.788 17.189 9.903 4.702-1.884 8.58-4.529 12.04-7.655zm-3.36 100.093c6.609 22.854 17.862 45.31 30.338 64.189 0 .11-.002.217-.003.329-.78 3.245-1.686 6.409-3.581 8.948-8.917 11.93-31.602-5.583-38.167-12.286-7.178-7.329-11.982-16.008-13.125-24.147-.832-5.938-.025-6.082 4.117-10.282 5.583-5.651 11.172-11.307 16.752-16.958 1.222-3.266 2.448-6.528 3.67-9.793zm422.284-183.436a13.88 13.88 0 0 1 3.006 4.412c.385-.354.798-.689 1.23-1.007a150.456 150.456 0 0 0-1.598-3.482c-.904.02-1.782.045-2.638.077zM463.85 295.705a17.829 17.829 0 0 1-1.74-7.553c-4.28 3.42-8.933 6.66-13.762 8.534 6.667-5.954 15.723-19.996 22.285-24.428 7.447-5.032 17.553-4.052 26.235-8.069-2.964 2.694-6.762 4.864-10.63 6.93 4.26 1.56 7.943 4.715 10.043 9.119a17.855 17.855 0 0 1 1.63 5.737c5.833-1.916 11.56-2.823 16.399-2.753-17.306 4.858-35.715 16.22-48.407 31.266 1.426-3.924 3.418-7.465 5.819-10.627a17.847 17.847 0 0 1-7.87-8.156zm-80.254-62.607c-9.557 3.73-18.273 6.527-27.59 8.868-8.5 11.172-13.678 16.96-15.635 31.935-2.3-14.732-2.78-17.466 3.777-28.462-1.9.966-3.667 2.294-6.2 4.458-9.159 7.832-21.099 38.611-25.873 49.615 3.03-13.245 12.51-46.35 22.272-56 6.42-6.346 7.876-6.2 16.928-7.057a1800.118 1800.118 0 0 0 32.32-3.355zm199.47 32.115c7.751.734 12.184 1.93 19.126-1.503 12.939-6.403 22.46-16.856 28.633-29.359-3.777 14.916-11.377 27.591-27.141 33.213-7.742 2.759-12.735-.09-20.619-2.35zm-148.786 1.458c2.921-12.935 8.107-25.398 28.196-35.04-26.626 6.667-31.618 17.85-28.196 35.04zM89.03 336.33c2.284-25.869 7.315-37.035 25.694-56.501-23.053 16.243-28.806 23.624-25.694 56.5"/>
      <path fill="#edd749" d="M467.305 299.893c-1.78-3.722-.189-8.206 3.542-9.98 3.73-1.778 8.224-.19 10.003 3.534.17.352.304.715.413 1.079-3.562 2.643-6.83 5.759-9.567 9.367-1.846-.741-3.477-2.09-4.391-4m83.367-32.243c.298-3.082 2.927-5.355 6.01-5.058 3.081.299 5.357 3.054 5.06 6.137a5.567 5.567 0 0 1-.507 1.838c-2.822.48-5.643 1.309-8.55 2.377-1.216-1.244-2.184-3.516-2.013-5.293"/>
    </g>
  </g>
</svg>