<svg xmlns="http://www.w3.org/2000/svg" xmlns:bx="https://boxy-svg.com" role="img" viewBox="-42.55 -25.05 1400 1400"><title>Istio logo</title><path fill="#4d6cac" d="M 3070.461 952.374 C 3070.461 1027.386 3051.196 1086.598 3012.666 1130.011 C 2974.129 1173.428 2922.526 1195.135 2857.853 1195.131 C 2792.625 1195.131 2740.816 1173.424 2702.423 1130.011 C 2664.028 1086.6 2644.831 1027.388 2644.831 952.374 C 2644.831 877.363 2664.028 818.083 2702.423 774.533 C 2740.816 730.986 2792.625 709.211 2857.853 709.207 C 2922.526 709.207 2974.129 730.982 3012.666 774.533 C 3051.194 818.085 3070.459 877.365 3070.461 952.374 Z M 2990.372 952.374 C 2990.372 892.756 2978.675 848.45 2955.283 819.457 C 2931.886 790.471 2899.408 775.977 2857.853 775.975 C 2815.743 775.975 2783.061 790.469 2759.804 819.457 C 2736.545 848.449 2724.916 892.755 2724.921 952.374 C 2724.921 1010.076 2736.618 1053.833 2760.012 1083.644 C 2783.4 1113.462 2816.015 1128.367 2857.851 1128.362 C 2899.136 1128.362 2931.543 1113.594 2955.075 1084.056 C 2978.606 1054.523 2990.372 1010.629 2990.372 952.374 Z M 193.761 1123.881 L 499.541 1015.968 L 499.541 441.873 L 193.761 1123.881 Z M 568.719 10.222 L 568.719 1015.968 L 1109.178 1123.881 L 568.719 10.222 Z M 233.637 1171.362 L 1076.751 1171.362 L 488.731 1337.548 L 233.637 1171.362 Z" bx:origin="0.453 0.458"/></svg>