<svg xmlns="http://www.w3.org/2000/svg" role="img" viewBox="-150 -225 280 280"><title>Kubernetes logo</title><path fill="#FFF" d="M -10.696 -199.478 L 83.277 -154.606 L 106.497 -53.756 L 41.477 27.126 L -62.821 27.136 L -127.858 -53.732 L -104.661 -154.585 Z"/><path fill="none" d="M -10.696 -199.478 L 83.277 -154.606 L 106.497 -53.756 L 41.477 27.125 L -62.821 27.136 L -127.858 -53.732 L -104.661 -154.585 Z"/><path fill="#326CE5" d="M -11.567 -210.362 C -13.829 -210.248 -16.047 -209.687 -18.091 -208.711 L -107.1 -166.182 C -111.689 -163.991 -115.177 -159.654 -116.31 -154.731 L -138.268 -59.198 C -139.28 -54.81 -138.426 -50.03 -135.958 -46.254 C -135.657 -45.792 -135.336 -45.343 -134.99 -44.911 L -73.38 31.692 C -70.205 35.639 -65.166 38.046 -60.074 38.044 L 38.727 38.021 C 43.816 38.025 48.855 35.623 52.034 31.68 L 113.62 -44.933 C 116.798 -48.882 118.044 -54.292 116.91 -59.22 L 94.916 -154.752 C 93.783 -159.677 90.295 -164.013 85.708 -166.205 L -3.313 -208.711 C -5.885 -209.936 -8.721 -210.503 -11.567 -210.362 Z"/><path fill="#FFF" d="M -10.858 -56.364 C -10.098 -56.39 -9.343 -56.229 -8.659 -55.896 C -7.761 -55.47 -7.023 -54.768 -6.553 -53.893 L -6.452 -53.893 L 7.107 -29.395 C 5.327 -28.801 3.518 -28.295 1.687 -27.881 C -8.681 -25.526 -19.017 -26.239 -28.377 -29.428 L -14.853 -53.882 L -14.83 -53.882 C -14.041 -55.357 -12.529 -56.301 -10.858 -56.364 Z M -34.091 -67.645 C -31.926 -67.612 -30.065 -66.103 -29.584 -63.992 C -29.36 -63.025 -29.452 -62.011 -29.845 -61.1 L -29.765 -60.998 L -40.42 -35.247 C -50.383 -41.64 -58.318 -51.211 -62.562 -62.954 L -35.06 -67.621 L -35.014 -67.564 C -34.71 -67.622 -34.401 -67.649 -34.091 -67.645 Z M 12.502 -67.759 C 12.867 -67.779 13.23 -67.745 13.583 -67.679 L 13.629 -67.736 L 41.372 -63.047 C 37.311 -51.64 29.541 -41.757 19.161 -35.144 L 8.393 -61.156 L 8.427 -61.202 C 7.434 -63.514 8.437 -66.199 10.704 -67.292 C 11.266 -67.567 11.877 -67.726 12.502 -67.759 Z M -14.977 -90.549 L -6.405 -90.549 L -1.078 -83.889 L -2.99 -75.579 L -10.687 -71.879 L -18.405 -75.589 L -20.317 -83.899 L -14.977 -90.549 Z M 36.261 -110.699 C 39.451 -105.523 41.77 -99.858 43.125 -93.931 C 44.477 -88.079 44.87 -82.047 44.287 -76.069 L 17.331 -83.833 L 17.308 -83.947 C 14.882 -84.614 13.412 -87.073 13.973 -89.525 C 14.191 -90.494 14.713 -91.368 15.463 -92.019 L 15.453 -92.076 L 36.261 -110.699 Z M -57.78 -110.709 L -36.857 -91.995 L -36.88 -91.881 C -34.981 -90.233 -34.72 -87.381 -36.288 -85.415 C -36.91 -84.635 -37.763 -84.073 -38.725 -83.809 L -38.748 -83.718 L -65.567 -75.977 C -66.904 -88.098 -64.164 -100.319 -57.78 -110.709 Z M -4.004 -136.529 C 8.118 -135.037 19.327 -129.549 27.917 -121.138 L 5.149 -104.996 L 5.069 -105.03 C 3.036 -103.548 0.197 -103.928 -1.373 -105.894 C -1.997 -106.668 -2.356 -107.622 -2.398 -108.616 L -2.421 -108.626 L -4.004 -136.529 Z M -17.357 -136.529 L -18.94 -108.582 L -19.054 -108.525 C -19.16 -106.012 -21.227 -104.03 -23.742 -104.028 C -24.737 -104.025 -25.706 -104.34 -26.51 -104.926 L -26.554 -104.903 L -49.47 -121.149 C -42.428 -128.075 -33.419 -133.193 -23.039 -135.55 C -21.141 -135.98 -19.246 -136.3 -17.357 -136.529 Z M -10.687 -177.852 C -13.629 -177.85 -16.014 -175.2 -16.014 -171.932 C -16.014 -171.881 -16.003 -171.833 -16.001 -171.783 C -16.006 -171.34 -16.028 -170.805 -16.014 -170.417 C -15.943 -168.532 -15.532 -167.089 -15.285 -165.351 C -14.837 -161.634 -14.462 -158.551 -14.693 -155.687 C -14.919 -154.606 -15.714 -153.618 -16.424 -152.932 L -16.551 -150.678 C -19.792 -150.411 -23.01 -149.916 -26.181 -149.198 C -39.508 -146.187 -51.63 -139.261 -60.992 -129.31 C -61.64 -129.757 -62.281 -130.212 -62.917 -130.676 C -63.869 -130.548 -64.829 -130.254 -66.081 -130.984 C -68.464 -132.588 -70.636 -134.804 -73.263 -137.473 C -74.467 -138.748 -75.339 -139.965 -76.771 -141.196 C -77.095 -141.476 -77.591 -141.853 -77.954 -142.141 C -79.073 -143.032 -80.391 -143.496 -81.666 -143.541 C -83.302 -143.598 -84.88 -142.957 -85.912 -141.663 C -87.746 -139.363 -87.159 -135.846 -84.603 -133.808 C -84.576 -133.787 -84.55 -133.771 -84.523 -133.751 C -84.172 -133.466 -83.742 -133.102 -83.418 -132.864 C -81.901 -131.743 -80.513 -131.169 -79.002 -130.279 C -75.816 -128.311 -73.175 -126.679 -71.08 -124.711 C -70.262 -123.839 -70.117 -122.303 -70.009 -121.637 L -68.301 -120.113 C -77.442 -106.356 -81.673 -89.364 -79.173 -72.05 L -81.403 -71.401 C -81.992 -70.641 -82.823 -69.446 -83.693 -69.091 C -86.434 -68.228 -89.518 -67.91 -93.243 -67.52 C -94.993 -67.374 -96.502 -67.461 -98.355 -67.109 C -98.763 -67.033 -99.332 -66.885 -99.778 -66.78 L -99.824 -66.767 C -99.847 -66.762 -99.879 -66.751 -99.902 -66.746 C -103.043 -65.986 -105.061 -63.1 -104.411 -60.257 C -103.762 -57.411 -100.693 -55.682 -97.534 -56.364 C -97.511 -56.369 -97.479 -56.369 -97.454 -56.374 C -97.418 -56.383 -97.388 -56.399 -97.353 -56.408 C -96.912 -56.506 -96.36 -56.612 -95.974 -56.716 C -94.153 -57.205 -92.833 -57.922 -91.193 -58.55 C -87.669 -59.813 -84.749 -60.87 -81.905 -61.282 C -80.717 -61.374 -79.465 -60.548 -78.842 -60.201 L -76.521 -60.599 C -71.176 -44.031 -59.977 -30.638 -45.795 -22.236 L -46.763 -19.913 C -46.415 -19.011 -46.03 -17.791 -46.29 -16.9 C -47.324 -14.219 -49.095 -11.389 -51.112 -8.234 C -52.089 -6.776 -53.088 -5.644 -53.968 -3.976 C -54.18 -3.578 -54.448 -2.964 -54.651 -2.542 C -56.021 0.389 -55.018 3.763 -52.387 5.028 C -49.74 6.303 -46.455 4.958 -45.032 2.024 C -45.031 2.019 -45.023 2.017 -45.022 2.012 C -45.02 2.01 -45.024 2.005 -45.022 2.001 C -44.819 1.585 -44.533 1.037 -44.362 0.646 C -43.606 -1.083 -43.355 -2.565 -42.825 -4.237 C -41.414 -7.778 -40.641 -11.494 -38.7 -13.808 C -38.168 -14.441 -37.302 -14.686 -36.404 -14.927 L -35.198 -17.113 C -22.834 -12.367 -8.996 -11.094 4.829 -14.232 C 7.936 -14.94 10.99 -15.86 13.97 -16.987 C 14.308 -16.386 14.939 -15.23 15.108 -14.938 C 16.021 -14.641 17.016 -14.488 17.827 -13.287 C 19.28 -10.808 20.273 -7.872 21.483 -4.327 C 22.013 -2.655 22.276 -1.173 23.03 0.555 C 23.203 0.95 23.487 1.505 23.69 1.921 C 25.11 4.867 28.406 6.215 31.056 4.938 C 33.687 3.672 34.692 0.298 33.322 -2.632 C 33.118 -3.053 32.838 -3.667 32.626 -4.065 C 31.746 -5.733 30.746 -6.854 29.77 -8.311 C 27.753 -11.467 26.079 -14.089 25.046 -16.771 C 24.614 -18.153 25.119 -19.014 25.455 -19.912 C 25.254 -20.143 24.822 -21.449 24.568 -22.064 C 39.306 -30.766 50.176 -44.658 55.281 -60.7 C 55.971 -60.592 57.17 -60.38 57.558 -60.302 C 58.36 -60.83 59.097 -61.521 60.541 -61.407 C 63.385 -60.996 66.306 -59.939 69.832 -58.675 C 71.47 -58.047 72.79 -57.318 74.613 -56.83 C 74.997 -56.727 75.548 -56.631 75.99 -56.535 C 76.026 -56.526 76.057 -56.508 76.093 -56.501 C 76.116 -56.496 76.15 -56.494 76.171 -56.489 C 79.33 -55.81 82.398 -57.539 83.048 -60.383 C 83.697 -63.227 81.68 -66.114 78.541 -66.872 C 78.084 -66.975 77.436 -67.153 76.991 -67.237 C 75.138 -67.587 73.629 -67.5 71.881 -67.646 C 68.156 -68.037 65.07 -68.354 62.329 -69.217 C 61.212 -69.651 60.417 -70.981 60.029 -71.529 L 57.879 -72.155 C 59.023 -80.445 58.644 -88.875 56.762 -97.029 C 54.876 -105.267 51.493 -113.088 46.78 -120.103 C 47.331 -120.605 48.374 -121.528 48.669 -121.8 C 48.756 -122.755 48.681 -123.758 49.67 -124.817 C 51.766 -126.784 54.407 -128.415 57.594 -130.384 C 59.106 -131.273 60.504 -131.846 62.021 -132.967 C 62.364 -133.222 62.834 -133.624 63.193 -133.913 C 65.749 -135.952 66.338 -139.466 64.502 -141.768 C 62.668 -144.068 59.112 -144.285 56.557 -142.245 C 56.194 -141.957 55.7 -141.582 55.374 -141.301 C 53.942 -140.07 53.059 -138.855 51.856 -137.578 C 49.229 -134.91 47.057 -132.683 44.674 -131.079 C 43.64 -130.477 42.127 -130.686 41.44 -130.727 L 39.414 -129.281 C 27.859 -141.397 12.127 -149.144 -4.812 -150.648 C -4.86 -151.358 -4.922 -152.64 -4.939 -153.026 C -5.631 -153.689 -6.469 -154.257 -6.68 -155.691 C -6.911 -158.555 -6.525 -161.637 -6.077 -165.355 C -5.83 -167.093 -5.417 -168.536 -5.348 -170.421 C -5.332 -170.85 -5.357 -171.472 -5.358 -171.936 C -5.36 -175.2 -7.743 -177.852 -10.687 -177.852 Z"/><path fill="none" d="M -10.858 -56.364 C -10.098 -56.39 -9.343 -56.229 -8.659 -55.896 C -7.761 -55.47 -7.023 -54.768 -6.553 -53.893 L -6.452 -53.893 L 7.107 -29.395 C 5.327 -28.801 3.518 -28.295 1.687 -27.881 C -8.681 -25.526 -19.017 -26.239 -28.377 -29.428 L -14.853 -53.882 L -14.83 -53.882 C -14.041 -55.357 -12.529 -56.301 -10.858 -56.364 Z M -34.091 -67.645 C -31.926 -67.612 -30.065 -66.103 -29.584 -63.992 C -29.36 -63.025 -29.452 -62.011 -29.845 -61.1 L -29.765 -60.998 L -40.42 -35.247 C -50.383 -41.64 -58.318 -51.211 -62.562 -62.954 L -35.06 -67.621 L -35.014 -67.564 C -34.71 -67.622 -34.401 -67.649 -34.091 -67.645 Z M 12.502 -67.759 C 12.867 -67.779 13.23 -67.745 13.583 -67.679 L 13.629 -67.736 L 41.372 -63.047 C 37.311 -51.64 29.541 -41.757 19.161 -35.144 L 8.393 -61.156 L 8.427 -61.202 C 7.434 -63.514 8.437 -66.199 10.704 -67.292 C 11.266 -67.567 11.877 -67.726 12.502 -67.759 Z M -14.977 -90.549 L -6.405 -90.549 L -1.078 -83.889 L -2.99 -75.579 L -10.687 -71.879 L -18.405 -75.589 L -20.317 -83.899 L -14.977 -90.549 Z M 36.261 -110.699 C 39.451 -105.523 41.77 -99.858 43.125 -93.931 C 44.477 -88.079 44.87 -82.047 44.287 -76.069 L 17.331 -83.833 L 17.308 -83.947 C 14.882 -84.614 13.412 -87.073 13.973 -89.525 C 14.191 -90.494 14.713 -91.368 15.463 -92.019 L 15.453 -92.076 L 36.261 -110.699 Z M -57.78 -110.709 L -36.857 -91.995 L -36.88 -91.881 C -34.981 -90.233 -34.72 -87.381 -36.288 -85.415 C -36.91 -84.635 -37.763 -84.073 -38.725 -83.809 L -38.748 -83.718 L -65.567 -75.977 C -66.904 -88.098 -64.164 -100.319 -57.78 -110.709 Z M -4.004 -136.529 C 8.118 -135.037 19.327 -129.549 27.917 -121.138 L 5.149 -104.996 L 5.069 -105.03 C 3.036 -103.548 0.197 -103.928 -1.373 -105.894 C -1.997 -106.668 -2.356 -107.622 -2.398 -108.616 L -2.421 -108.626 L -4.004 -136.529 Z M -17.357 -136.529 L -18.94 -108.582 L -19.054 -108.525 C -19.16 -106.012 -21.227 -104.03 -23.742 -104.028 C -24.737 -104.025 -25.706 -104.34 -26.51 -104.926 L -26.554 -104.903 L -49.47 -121.149 C -42.428 -128.075 -33.419 -133.193 -23.039 -135.55 C -21.141 -135.98 -19.246 -136.3 -17.357 -136.529 Z M -10.687 -177.852 C -13.629 -177.85 -16.014 -175.2 -16.014 -171.932 C -16.014 -171.881 -16.003 -171.833 -16.001 -171.783 C -16.006 -171.34 -16.028 -170.805 -16.014 -170.417 C -15.943 -168.532 -15.532 -167.089 -15.285 -165.351 C -14.837 -161.634 -14.462 -158.551 -14.693 -155.687 C -14.919 -154.606 -15.714 -153.618 -16.424 -152.932 L -16.551 -150.678 C -19.792 -150.411 -23.01 -149.916 -26.181 -149.198 C -39.508 -146.187 -51.63 -139.261 -60.992 -129.31 C -61.64 -129.757 -62.281 -130.212 -62.917 -130.676 C -63.869 -130.548 -64.829 -130.254 -66.081 -130.984 C -68.464 -132.588 -70.636 -134.804 -73.263 -137.473 C -74.467 -138.748 -75.339 -139.965 -76.771 -141.196 C -77.095 -141.476 -77.591 -141.853 -77.954 -142.141 C -79.073 -143.032 -80.391 -143.496 -81.666 -143.541 C -83.302 -143.598 -84.88 -142.957 -85.912 -141.663 C -87.746 -139.363 -87.159 -135.846 -84.603 -133.808 C -84.576 -133.787 -84.55 -133.771 -84.523 -133.751 C -84.172 -133.466 -83.742 -133.102 -83.418 -132.864 C -81.901 -131.743 -80.513 -131.169 -79.002 -130.279 C -75.816 -128.311 -73.175 -126.679 -71.08 -124.711 C -70.262 -123.839 -70.117 -122.303 -70.009 -121.637 L -68.301 -120.113 C -77.442 -106.356 -81.673 -89.364 -79.173 -72.05 L -81.403 -71.401 C -81.992 -70.641 -82.823 -69.446 -83.693 -69.091 C -86.434 -68.228 -89.518 -67.91 -93.243 -67.52 C -94.993 -67.374 -96.502 -67.461 -98.355 -67.109 C -98.763 -67.033 -99.332 -66.885 -99.778 -66.78 L -99.824 -66.767 C -99.847 -66.762 -99.879 -66.751 -99.902 -66.746 C -103.043 -65.986 -105.061 -63.1 -104.411 -60.257 C -103.762 -57.411 -100.693 -55.682 -97.534 -56.364 C -97.511 -56.369 -97.479 -56.369 -97.454 -56.374 C -97.418 -56.383 -97.388 -56.399 -97.353 -56.408 C -96.912 -56.506 -96.36 -56.612 -95.974 -56.716 C -94.153 -57.205 -92.833 -57.922 -91.193 -58.55 C -87.669 -59.813 -84.749 -60.87 -81.905 -61.282 C -80.717 -61.374 -79.465 -60.548 -78.842 -60.201 L -76.521 -60.599 C -71.176 -44.031 -59.977 -30.638 -45.795 -22.236 L -46.763 -19.913 C -46.415 -19.011 -46.03 -17.791 -46.29 -16.9 C -47.324 -14.219 -49.095 -11.389 -51.112 -8.234 C -52.089 -6.776 -53.088 -5.644 -53.968 -3.976 C -54.18 -3.578 -54.448 -2.964 -54.651 -2.542 C -56.021 0.389 -55.018 3.763 -52.387 5.028 C -49.74 6.303 -46.455 4.958 -45.032 2.024 C -45.031 2.019 -45.023 2.017 -45.022 2.012 C -45.02 2.01 -45.024 2.005 -45.022 2.001 C -44.819 1.585 -44.533 1.037 -44.362 0.646 C -43.606 -1.083 -43.355 -2.565 -42.825 -4.237 C -41.414 -7.778 -40.641 -11.494 -38.7 -13.808 C -38.168 -14.441 -37.302 -14.686 -36.404 -14.927 L -35.198 -17.113 C -22.834 -12.367 -8.996 -11.094 4.829 -14.232 C 7.936 -14.94 10.99 -15.86 13.97 -16.987 C 14.308 -16.386 14.939 -15.23 15.108 -14.938 C 16.021 -14.641 17.016 -14.488 17.827 -13.287 C 19.28 -10.808 20.273 -7.872 21.483 -4.327 C 22.013 -2.655 22.276 -1.173 23.03 0.555 C 23.203 0.95 23.487 1.505 23.69 1.921 C 25.11 4.867 28.406 6.215 31.056 4.938 C 33.687 3.672 34.692 0.298 33.322 -2.632 C 33.118 -3.053 32.838 -3.667 32.626 -4.065 C 31.746 -5.733 30.746 -6.854 29.77 -8.311 C 27.753 -11.467 26.079 -14.089 25.046 -16.771 C 24.614 -18.153 25.119 -19.014 25.455 -19.912 C 25.254 -20.143 24.822 -21.449 24.568 -22.064 C 39.306 -30.766 50.176 -44.658 55.281 -60.7 C 55.971 -60.592 57.17 -60.38 57.558 -60.302 C 58.36 -60.83 59.097 -61.521 60.541 -61.407 C 63.385 -60.996 66.306 -59.939 69.832 -58.675 C 71.47 -58.047 72.79 -57.318 74.613 -56.83 C 74.997 -56.727 75.548 -56.631 75.99 -56.535 C 76.026 -56.526 76.057 -56.508 76.093 -56.501 C 76.116 -56.496 76.15 -56.494 76.171 -56.489 C 79.33 -55.81 82.398 -57.539 83.048 -60.383 C 83.697 -63.227 81.68 -66.114 78.541 -66.872 C 78.084 -66.975 77.436 -67.153 76.991 -67.237 C 75.138 -67.587 73.629 -67.5 71.881 -67.646 C 68.156 -68.037 65.07 -68.354 62.329 -69.217 C 61.212 -69.651 60.417 -70.981 60.029 -71.529 L 57.879 -72.155 C 59.023 -80.445 58.644 -88.875 56.762 -97.029 C 54.876 -105.267 51.493 -113.088 46.78 -120.103 C 47.331 -120.605 48.374 -121.528 48.669 -121.8 C 48.756 -122.755 48.681 -123.758 49.67 -124.817 C 51.766 -126.784 54.407 -128.415 57.594 -130.384 C 59.106 -131.273 60.504 -131.846 62.021 -132.967 C 62.364 -133.222 62.834 -133.624 63.193 -133.913 C 65.749 -135.952 66.338 -139.466 64.502 -141.768 C 62.668 -144.068 59.112 -144.285 56.557 -142.245 C 56.194 -141.957 55.7 -141.582 55.374 -141.301 C 53.942 -140.07 53.059 -138.855 51.856 -137.578 C 49.229 -134.91 47.057 -132.683 44.674 -131.079 C 43.64 -130.477 42.127 -130.686 41.44 -130.727 L 39.414 -129.281 C 27.859 -141.397 12.127 -149.144 -4.812 -150.648 C -4.86 -151.358 -4.922 -152.64 -4.939 -153.026 C -5.631 -153.689 -6.469 -154.257 -6.68 -155.691 C -6.911 -158.555 -6.525 -161.637 -6.077 -165.355 C -5.83 -167.093 -5.417 -168.536 -5.348 -170.421 C -5.332 -170.85 -5.357 -171.472 -5.358 -171.936 C -5.36 -175.2 -7.743 -177.852 -10.687 -177.852 Z"/></svg>