<?xml version="1.0" encoding="utf-8"?>
<svg class="svg-inline--fa fa-cubes fa-w-16" aria-hidden="true" data-prefix="fa" data-icon="cubes" role="img" viewBox="0 0 512 512" data-fa-i2svg="" xmlns="http://www.w3.org/2000/svg">
  <defs>
    <pattern id="pattern-0" x="0" y="0" width="25" height="25" patternUnits="userSpaceOnUse" viewBox="0 0 100 100">
      <rect x="0" y="0" width="50" height="100" style="fill: black;"/>
    </pattern>
  </defs>
  <polyline style="stroke-width: 0px; stroke: rgb(226, 67, 41); fill: rgb(226, 67, 41);" points="152.395 94.164 254.971 130.798 357.838 94.164 255.429 55.698 154.227 93.706 152.979 93.706"/>
  <polyline style="stroke: rgb(0, 0, 0); stroke-width: 0px; fill: rgb(226, 67, 41);" points="43.469 247.456 151.701 290.501 258.232 243.294 152.164 205.16 45.319 246.998 43.007 247.914" transform=""/>
  <polygon style="stroke: rgb(0, 0, 0); stroke-width: 0px; fill: rgb(252, 163, 38);" points="44.401 250.67 143.812 291.134 143.52 395.415 44.276 351.827" transform=""/>
  <polygon style="stroke: rgb(0, 0, 0); fill: rgb(252, 109, 38); stroke-width: 0px;" points="147.671 294.84 256.986 246.012 256.82 357.531 146.132 400.661" transform=""/>
  <polygon style="stroke: rgb(0, 0, 0); stroke-width: 0px; fill: rgb(252, 163, 38);" points="260.115 249.817 358.61 285.953 355.53 396.893 260.282 353.762" transform=""/>
  <polygon style="stroke: rgb(0, 0, 0); fill: rgb(252, 109, 38); stroke-width: 0px;" points="362.843 283.788 456.386 248.569 455.761 346.48 359.139 392.564" transform=""/>
  <polygon style="stroke: rgb(0, 0, 0); fill: rgb(252, 109, 38); stroke-width: 0px;" points="257.18 131.889 356.174 96.315 356.296 209.151 259.221 242.304" transform=""/>
  <polygon style="stroke: rgb(0, 0, 0); stroke-width: 0px; fill: rgb(252, 163, 38);" points="151.021 96.578 254.967 132.796 257.13 241.154 151.645 203.231" transform=""/>
  <polygon style="stroke: rgb(0, 0, 0); stroke-width: 0px; fill: rgb(226, 67, 41);" points="257.318 245.906 360.141 210.631 455.522 244.75 358.11 282.768" transform=""/>
</svg>