<?xml version="1.0" encoding="utf-8"?>
<svg class="svg-inline--fa fa-cubes fa-w-16" aria-hidden="true" data-prefix="fa" data-icon="cubes" role="img" viewBox="0 0 512 512" data-fa-i2svg="" xmlns="http://www.w3.org/2000/svg">
  <defs>
    <pattern id="pattern-0" x="0" y="0" width="25" height="25" patternUnits="userSpaceOnUse" viewBox="0 0 100 100">
      <rect x="0" y="0" width="50" height="100" style="fill: black;"/>
    </pattern>
  </defs>
  <path d="M384 215.1V102.5c0-15-9.3-28.4-23.4-33.7l-92-34.5c-8.1-3.1-17.1-3.1-25.3 0l-92 34.5c-14.1 5.3-23.4 18.7-23.4 33.7v112.6L23.4 254.4C9.3 259.6 0 273.1 0 288.1v106.6c0 13.6 7.7 26.1 19.9 32.2l98.6 49.3c10.1 5.1 22.1 5.1 32.2 0L256 423.6l105.3 52.6c10.1 5.1 22.1 5.1 32.2 0l98.6-49.3c12.2-6.1 19.9-18.6 19.9-32.2V288.1c0-15-9.3-28.4-23.4-33.7L384 215.1zm-116 34.8V152l92-31.7v97.6l-92 32zM152 94.2l104-39 104 39v.2L256 131 152 94.3v-.1zm0 26.1l92 31.7v97.9l-92-32v-97.6zm-30 329.4l-96.8-48.4V308l96.8 39.3v102.4zM25.2 280.8v-.2l109.4-41 108.1 40.5v1.2l-108.1 43.9-109.4-44.4zm122 66.5l95.5-38.8V402l-95.5 47.8V347.3zm217.6 102.4L269.3 402v-93.4l95.5 38.8v102.3zm122-48.4L390 449.7V347.3l96.8-39.3v93.3zm0-120.5l-109.4 44.4-108.1-43.9v-1.2l108.1-40.5 109.4 41v.2z" style="fill: rgb(255, 255, 255);"/>
  <polyline style="stroke: rgb(0, 0, 0); fill: rgb(252, 109, 38); stroke-width: 0px;" points="152.395 94.164 254.971 130.798 358.92 94.164 255.429 55.698 154.227 93.706 155.143 93.706"/>
  <polyline style="stroke: rgb(0, 0, 0); fill: rgb(252, 109, 38); stroke-width: 0px;" points="267.106 280.54 379.298 325.875 485.537 280.54 376.551 239.785 267.106 280.54 267.564 280.998" transform=""/>
  <polyline style="stroke: rgb(0, 0, 0); fill: rgb(252, 109, 38); stroke-width: 0px;" points="27.152 280.998 134.307 324.043 241.92 280.082 134.765 239.784 28.984 280.54 26.695 281.456" transform=""/>
  <polygon style="stroke: rgb(0, 0, 0); fill: rgb(252, 109, 38); stroke-width: 0px;" points="26.007 308.015 122.172 347.397 120.798 449.514 23.718 400.516"/>
  <polygon style="stroke: rgb(0, 0, 0); fill: rgb(252, 109, 38); stroke-width: 0px;" points="32.876 358.387 128.125 320.379 129.041 412.422 32.419 460.962" transform="matrix(1 0 0 1 113.795 -11.2189)"/>
  <polygon style="stroke: rgb(0, 0, 0); fill: rgb(252, 109, 38); stroke-width: 0px;" points="269.853 308.244 365.102 347.626 364.186 448.828 268.938 400.287"/>
  <polygon style="stroke: rgb(0, 0, 0); fill: rgb(252, 109, 38); stroke-width: 0px;" points="48.904 387.236 144.611 348.771 145.068 441.272 48.446 488.438" transform="matrix(1 0 0 1 342.071 -39.6106)"/>
  <polygon style="stroke: rgb(0, 0, 0); fill: rgb(252, 109, 38); stroke-width: 0px;" points="268 152.091 360.502 120.037 359.585 218.033 268.916 248.714"/>
  <polygon style="stroke: rgb(0, 0, 0); fill: rgb(252, 109, 38); stroke-width: 0px;" points="97.444 324.5 189.488 357.472 189.487 455.01 96.986 422.497" transform="matrix(1 0 0 1 53.5769 -204.922)"/>
</svg>
